<svg width="460" height="172" viewBox="0 0 460 172" fill="none" xmlns="http://www.w3.org/2000/svg">
<path d="M167.037 150.019C167.012 149.829 167.012 149.626 167.037 149.411C167.633 149.348 168.057 149.291 168.31 149.24C168.564 149.177 168.722 149.05 168.785 148.86C168.849 148.657 168.88 148.334 168.88 147.891V139.056C168.88 138.524 168.849 138.144 168.785 137.916C168.722 137.688 168.557 137.542 168.291 137.479C168.038 137.403 167.62 137.34 167.037 137.289C167.012 137.099 167.012 136.896 167.037 136.681C167.367 136.681 167.652 136.687 167.892 136.7C168.146 136.7 168.399 136.7 168.652 136.7C168.906 136.7 169.21 136.706 169.564 136.719C169.919 136.719 170.369 136.719 170.913 136.719C171.914 136.719 172.851 136.719 173.725 136.719C174.599 136.706 175.328 136.7 175.91 136.7C176.493 136.687 176.835 136.681 176.936 136.681C176.987 137.15 177.044 137.631 177.107 138.125C177.183 138.619 177.266 139.145 177.354 139.702C177.139 139.727 176.93 139.727 176.727 139.702C176.575 139.322 176.398 138.986 176.195 138.695C175.993 138.404 175.784 138.182 175.568 138.03C175.328 137.853 175.036 137.72 174.694 137.631C174.365 137.542 173.953 137.498 173.459 137.498H170.97V142.685H172.015C172.623 142.685 173.086 142.647 173.402 142.571C173.719 142.482 173.953 142.299 174.105 142.02C174.257 141.729 174.378 141.273 174.466 140.652C174.694 140.614 174.91 140.614 175.112 140.652C175.1 141.209 175.087 141.64 175.074 141.944C175.074 142.235 175.074 142.451 175.074 142.59C175.074 142.729 175.074 142.843 175.074 142.932C175.074 143.008 175.074 143.071 175.074 143.122L175.112 145.63C174.922 145.668 174.707 145.668 174.466 145.63C174.39 144.959 174.276 144.477 174.124 144.186C173.972 143.895 173.744 143.711 173.44 143.635C173.149 143.559 172.731 143.521 172.186 143.521H170.97V147.644C170.97 148.075 170.97 148.423 170.97 148.689C170.983 148.942 170.996 149.107 171.008 149.183H173.611C174.245 149.183 174.751 149.132 175.131 149.031C175.524 148.917 175.847 148.752 176.1 148.537C176.278 148.398 176.487 148.157 176.727 147.815C176.968 147.46 177.196 147.055 177.411 146.599C177.614 146.574 177.81 146.574 178 146.599C177.874 147.308 177.766 147.948 177.677 148.518C177.589 149.088 177.513 149.582 177.449 150C176.879 150 176.259 150 175.587 150C174.916 150 174.245 150 173.573 150C172.902 149.987 172.288 149.981 171.73 149.981C171.186 149.981 170.749 149.981 170.419 149.981C169.824 149.981 169.336 149.987 168.956 150C168.589 150 168.26 150 167.968 150C167.69 150.013 167.379 150.019 167.037 150.019ZM185.993 150.133L181.889 139.303C181.724 138.847 181.578 138.492 181.452 138.239C181.338 137.986 181.211 137.796 181.072 137.669C180.932 137.542 180.749 137.46 180.521 137.422C180.305 137.371 180.014 137.327 179.647 137.289C179.609 137.086 179.609 136.884 179.647 136.681C180.09 136.681 180.552 136.687 181.034 136.7C181.528 136.713 182.003 136.719 182.459 136.719C182.737 136.719 183.054 136.719 183.409 136.719C183.776 136.706 184.137 136.7 184.492 136.7C184.859 136.687 185.182 136.681 185.461 136.681C185.499 136.871 185.499 137.074 185.461 137.289C184.789 137.34 184.321 137.403 184.055 137.479C183.789 137.555 183.656 137.707 183.656 137.935C183.656 138.024 183.675 138.138 183.713 138.277C183.763 138.404 183.82 138.556 183.884 138.733L187.133 147.435L190.306 139.075C190.394 138.834 190.464 138.632 190.515 138.467C190.565 138.29 190.591 138.144 190.591 138.03C190.591 137.777 190.458 137.606 190.192 137.517C189.938 137.416 189.457 137.34 188.748 137.289C188.71 137.074 188.71 136.871 188.748 136.681C188.938 136.681 189.216 136.687 189.584 136.7C189.951 136.7 190.318 136.706 190.686 136.719C191.053 136.719 191.332 136.719 191.522 136.719C191.927 136.719 192.288 136.713 192.605 136.7C192.934 136.687 193.295 136.681 193.688 136.681C193.726 136.884 193.726 137.086 193.688 137.289C193.32 137.327 193.016 137.365 192.776 137.403C192.548 137.441 192.351 137.523 192.187 137.65C192.022 137.777 191.864 137.979 191.712 138.258C191.572 138.524 191.408 138.904 191.218 139.398L187.019 149.981C186.867 150.032 186.689 150.07 186.487 150.095C186.297 150.12 186.132 150.133 185.993 150.133ZM195.108 150.019C195.082 149.829 195.082 149.626 195.108 149.411C195.703 149.348 196.127 149.291 196.381 149.24C196.634 149.177 196.792 149.05 196.856 148.86C196.919 148.657 196.951 148.334 196.951 147.891V139.056C196.951 138.524 196.919 138.144 196.856 137.916C196.792 137.688 196.628 137.542 196.362 137.479C196.108 137.403 195.69 137.34 195.108 137.289C195.082 137.099 195.082 136.896 195.108 136.681C195.437 136.681 195.722 136.687 195.963 136.7C196.216 136.7 196.469 136.7 196.723 136.7C196.976 136.7 197.28 136.706 197.635 136.719C197.989 136.719 198.439 136.719 198.984 136.719C199.984 136.719 200.922 136.719 201.796 136.719C202.67 136.706 203.398 136.7 203.981 136.7C204.563 136.687 204.905 136.681 205.007 136.681C205.057 137.15 205.114 137.631 205.178 138.125C205.254 138.619 205.336 139.145 205.425 139.702C205.209 139.727 205 139.727 204.798 139.702C204.646 139.322 204.468 138.986 204.266 138.695C204.063 138.404 203.854 138.182 203.639 138.03C203.398 137.853 203.107 137.72 202.765 137.631C202.435 137.542 202.024 137.498 201.53 137.498H199.041V142.685H200.086C200.694 142.685 201.156 142.647 201.473 142.571C201.789 142.482 202.024 142.299 202.176 142.02C202.328 141.729 202.448 141.273 202.537 140.652C202.765 140.614 202.98 140.614 203.183 140.652C203.17 141.209 203.157 141.64 203.145 141.944C203.145 142.235 203.145 142.451 203.145 142.59C203.145 142.729 203.145 142.843 203.145 142.932C203.145 143.008 203.145 143.071 203.145 143.122L203.183 145.63C202.993 145.668 202.777 145.668 202.537 145.63C202.461 144.959 202.347 144.477 202.195 144.186C202.043 143.895 201.815 143.711 201.511 143.635C201.219 143.559 200.801 143.521 200.257 143.521H199.041V147.644C199.041 148.075 199.041 148.423 199.041 148.689C199.053 148.942 199.066 149.107 199.079 149.183H201.682C202.315 149.183 202.822 149.132 203.202 149.031C203.594 148.917 203.917 148.752 204.171 148.537C204.348 148.398 204.557 148.157 204.798 147.815C205.038 147.46 205.266 147.055 205.482 146.599C205.684 146.574 205.881 146.574 206.071 146.599C205.944 147.308 205.836 147.948 205.748 148.518C205.659 149.088 205.583 149.582 205.52 150C204.95 150 204.329 150 203.658 150C202.986 150 202.315 150 201.644 150C200.972 149.987 200.358 149.981 199.801 149.981C199.256 149.981 198.819 149.981 198.49 149.981C197.894 149.981 197.407 149.987 197.027 150C196.659 150 196.33 150 196.039 150C195.76 150.013 195.45 150.019 195.108 150.019ZM219.953 150.133L211.498 139.037V147.169C211.498 147.65 211.511 148.024 211.536 148.29C211.561 148.543 211.637 148.74 211.764 148.879C211.891 149.006 212.087 149.113 212.353 149.202C212.619 149.291 212.999 149.36 213.493 149.411C213.518 149.614 213.518 149.816 213.493 150.019C213.113 150.019 212.689 150.013 212.22 150C211.764 149.987 211.378 149.981 211.061 149.981C210.744 149.981 210.352 149.987 209.883 150C209.427 150.013 209.015 150.019 208.648 150.019C208.61 149.829 208.61 149.626 208.648 149.411C209.104 149.348 209.459 149.291 209.712 149.24C209.965 149.177 210.149 149.088 210.263 148.974C210.377 148.847 210.447 148.664 210.472 148.423C210.51 148.182 210.529 147.847 210.529 147.416V139.626C210.529 139.119 210.51 138.72 210.472 138.429C210.447 138.138 210.364 137.922 210.225 137.783C210.098 137.631 209.896 137.523 209.617 137.46C209.351 137.384 208.977 137.321 208.496 137.27C208.483 137.08 208.483 136.884 208.496 136.681C208.889 136.681 209.307 136.687 209.75 136.7C210.193 136.713 210.637 136.719 211.08 136.719C211.143 136.719 211.314 136.719 211.593 136.719C211.884 136.719 212.138 136.713 212.353 136.7L220.067 146.846V139.55C220.067 139.069 220.054 138.695 220.029 138.429C220.016 138.163 219.94 137.967 219.801 137.84C219.535 137.561 218.895 137.384 217.882 137.308C217.844 137.093 217.844 136.89 217.882 136.7C218.123 136.7 218.408 136.706 218.737 136.719C219.079 136.719 219.408 136.725 219.725 136.738C220.042 136.738 220.301 136.738 220.504 136.738C220.821 136.738 221.213 136.732 221.682 136.719C222.151 136.706 222.569 136.7 222.936 136.7C222.961 136.89 222.961 137.086 222.936 137.289C222.328 137.365 221.891 137.454 221.625 137.555C221.359 137.644 221.194 137.815 221.131 138.068C221.068 138.321 221.036 138.733 221.036 139.303V150.038C220.909 150.063 220.738 150.082 220.523 150.095C220.308 150.12 220.118 150.133 219.953 150.133ZM228.217 150.019C228.192 149.829 228.192 149.626 228.217 149.411C228.851 149.348 229.3 149.291 229.566 149.24C229.832 149.177 229.997 149.05 230.06 148.86C230.124 148.67 230.155 148.347 230.155 147.891V137.517H228.787C228.116 137.517 227.584 137.612 227.191 137.802C226.811 137.979 226.501 138.252 226.26 138.619C226.032 138.986 225.804 139.455 225.576 140.025C225.374 140.05 225.171 140.05 224.968 140.025C225.044 139.417 225.114 138.834 225.177 138.277C225.253 137.72 225.317 137.181 225.367 136.662C226.191 136.713 227.103 136.744 228.103 136.757C229.104 136.757 230.143 136.757 231.219 136.757C232.309 136.757 233.354 136.757 234.354 136.757C235.368 136.744 236.28 136.713 237.09 136.662C237.141 137.169 237.192 137.707 237.242 138.277C237.293 138.834 237.356 139.417 237.432 140.025C237.217 140.05 237.008 140.05 236.805 140.025C236.565 139.442 236.324 138.967 236.083 138.6C235.843 138.233 235.532 137.96 235.152 137.783C234.785 137.606 234.266 137.517 233.594 137.517H232.245V147.644C232.245 148.037 232.258 148.347 232.283 148.575C232.309 148.803 232.378 148.968 232.492 149.069C232.619 149.17 232.815 149.246 233.081 149.297C233.347 149.335 233.715 149.373 234.183 149.411C234.221 149.614 234.221 149.816 234.183 150.019C233.917 150.019 233.594 150.013 233.214 150C232.847 150 232.48 150 232.112 150C231.745 149.987 231.435 149.981 231.181 149.981C230.941 149.981 230.637 149.987 230.269 150C229.915 150 229.547 150 229.167 150C228.8 150.013 228.483 150.019 228.217 150.019ZM253.749 147.112L257.815 136.7C258.081 136.713 258.36 136.719 258.651 136.719C258.942 136.719 259.189 136.719 259.392 136.719C259.493 136.719 259.677 136.719 259.943 136.719C260.222 136.706 260.519 136.7 260.836 136.7C261.165 136.7 261.463 136.7 261.729 136.7C262.008 136.687 262.198 136.681 262.299 136.681C262.337 136.871 262.337 137.067 262.299 137.27H262.261C261.678 137.333 261.254 137.397 260.988 137.46C260.722 137.511 260.557 137.637 260.494 137.84C260.443 138.03 260.418 138.347 260.418 138.79L260.57 147.663C260.57 148.056 260.583 148.366 260.608 148.594C260.633 148.822 260.703 148.987 260.817 149.088C260.931 149.189 261.115 149.265 261.368 149.316C261.621 149.354 261.982 149.392 262.451 149.43C262.489 149.62 262.489 149.816 262.451 150.019C262.35 150.019 262.16 150.013 261.881 150C261.615 150 261.317 150 260.988 150C260.671 150 260.374 150 260.095 150C259.829 149.987 259.645 149.981 259.544 149.981C259.443 149.981 259.259 149.987 258.993 150C258.727 150 258.436 150 258.119 150C257.802 150 257.511 150 257.245 150C256.979 150.013 256.795 150.019 256.694 150.019C256.681 149.829 256.681 149.633 256.694 149.43H256.732C257.289 149.367 257.695 149.31 257.948 149.259C258.201 149.196 258.353 149.069 258.404 148.879C258.467 148.676 258.499 148.353 258.499 147.91L258.328 137.726L253.54 149.981C253.451 150.019 253.312 150.044 253.122 150.057C252.932 150.07 252.767 150.076 252.628 150.076L248.125 138.125L247.821 147.91C247.808 148.328 247.827 148.632 247.878 148.822C247.929 148.999 248.081 149.126 248.334 149.202C248.587 149.278 249.012 149.354 249.607 149.43C249.658 149.633 249.658 149.829 249.607 150.019C249.48 150.019 249.259 150.013 248.942 150C248.638 150 248.328 150 248.011 150C247.707 149.987 247.485 149.981 247.346 149.981C247.27 149.981 247.118 149.987 246.89 150C246.675 150 246.434 150 246.168 150C245.902 150 245.655 150 245.427 150C245.212 150.013 245.066 150.019 244.99 150.019C244.965 149.816 244.965 149.62 244.99 149.43C245.585 149.354 246.01 149.278 246.263 149.202C246.516 149.126 246.675 148.974 246.738 148.746C246.814 148.518 246.858 148.157 246.871 147.663L247.232 138.79C247.257 138.347 247.238 138.03 247.175 137.84C247.112 137.65 246.941 137.523 246.662 137.46C246.396 137.384 245.953 137.321 245.332 137.27C245.319 137.067 245.319 136.871 245.332 136.681C245.763 136.681 246.206 136.687 246.662 136.7C247.118 136.713 247.625 136.719 248.182 136.719C248.372 136.719 248.625 136.719 248.942 136.719C249.259 136.719 249.55 136.713 249.816 136.7L253.749 147.112ZM264.004 150.019C263.979 149.816 263.979 149.614 264.004 149.411C264.359 149.373 264.644 149.329 264.859 149.278C265.074 149.227 265.258 149.139 265.41 149.012C265.562 148.873 265.708 148.67 265.847 148.404C265.986 148.125 266.151 147.739 266.341 147.245L270.445 136.719C270.584 136.668 270.749 136.63 270.939 136.605C271.142 136.58 271.313 136.567 271.452 136.567L275.537 147.416C275.714 147.872 275.86 148.233 275.974 148.499C276.088 148.752 276.215 148.936 276.354 149.05C276.493 149.164 276.671 149.246 276.886 149.297C277.101 149.335 277.399 149.373 277.779 149.411C277.804 149.614 277.804 149.816 277.779 150.019C277.336 150.019 276.88 150.013 276.411 150C275.942 149.987 275.474 149.981 275.005 149.981C274.524 149.981 274.036 149.987 273.542 150C273.061 150.013 272.579 150.019 272.098 150.019C272.06 149.829 272.06 149.626 272.098 149.411C272.719 149.348 273.149 149.291 273.39 149.24C273.631 149.177 273.751 149.025 273.751 148.784C273.751 148.683 273.732 148.569 273.694 148.442C273.656 148.315 273.605 148.157 273.542 147.967L272.459 145.041H268.184L267.234 147.663C267.145 147.904 267.076 148.106 267.025 148.271C266.987 148.423 266.968 148.562 266.968 148.689C266.968 148.968 267.095 149.145 267.348 149.221C267.614 149.284 268.045 149.348 268.64 149.411C268.665 149.626 268.665 149.829 268.64 150.019C268.209 150.019 267.785 150.013 267.367 150C266.949 149.987 266.525 149.981 266.094 149.981C265.739 149.981 265.397 149.987 265.068 150C264.739 150.013 264.384 150.019 264.004 150.019ZM268.469 144.243H272.174L270.312 139.189L268.469 144.243ZM290.732 150.133L282.277 139.037V147.169C282.277 147.65 282.289 148.024 282.315 148.29C282.34 148.543 282.416 148.74 282.543 148.879C282.669 149.006 282.866 149.113 283.132 149.202C283.398 149.291 283.778 149.36 284.272 149.411C284.297 149.614 284.297 149.816 284.272 150.019C283.892 150.019 283.467 150.013 282.999 150C282.543 149.987 282.156 149.981 281.84 149.981C281.523 149.981 281.13 149.987 280.662 150C280.206 150.013 279.794 150.019 279.427 150.019C279.389 149.829 279.389 149.626 279.427 149.411C279.883 149.348 280.237 149.291 280.491 149.24C280.744 149.177 280.928 149.088 281.042 148.974C281.156 148.847 281.225 148.664 281.251 148.423C281.289 148.182 281.308 147.847 281.308 147.416V139.626C281.308 139.119 281.289 138.72 281.251 138.429C281.225 138.138 281.143 137.922 281.004 137.783C280.877 137.631 280.674 137.523 280.396 137.46C280.13 137.384 279.756 137.321 279.275 137.27C279.262 137.08 279.262 136.884 279.275 136.681C279.667 136.681 280.085 136.687 280.529 136.7C280.972 136.713 281.415 136.719 281.859 136.719C281.922 136.719 282.093 136.719 282.372 136.719C282.663 136.719 282.916 136.713 283.132 136.7L290.846 146.846V139.55C290.846 139.069 290.833 138.695 290.808 138.429C290.795 138.163 290.719 137.967 290.58 137.84C290.314 137.561 289.674 137.384 288.661 137.308C288.623 137.093 288.623 136.89 288.661 136.7C288.901 136.7 289.186 136.706 289.516 136.719C289.858 136.719 290.187 136.725 290.504 136.738C290.82 136.738 291.08 136.738 291.283 136.738C291.599 136.738 291.992 136.732 292.461 136.719C292.929 136.706 293.347 136.7 293.715 136.7C293.74 136.89 293.74 137.086 293.715 137.289C293.107 137.365 292.67 137.454 292.404 137.555C292.138 137.644 291.973 137.815 291.91 138.068C291.846 138.321 291.815 138.733 291.815 139.303V150.038C291.688 150.063 291.517 150.082 291.302 150.095C291.086 150.12 290.896 150.133 290.732 150.133ZM294.82 150.019C294.795 149.816 294.795 149.614 294.82 149.411C295.175 149.373 295.46 149.329 295.675 149.278C295.891 149.227 296.074 149.139 296.226 149.012C296.378 148.873 296.524 148.67 296.663 148.404C296.803 148.125 296.967 147.739 297.157 147.245L301.261 136.719C301.401 136.668 301.565 136.63 301.755 136.605C301.958 136.58 302.129 136.567 302.268 136.567L306.353 147.416C306.531 147.872 306.676 148.233 306.79 148.499C306.904 148.752 307.031 148.936 307.17 149.05C307.31 149.164 307.487 149.246 307.702 149.297C307.918 149.335 308.215 149.373 308.595 149.411C308.621 149.614 308.621 149.816 308.595 150.019C308.152 150.019 307.696 150.013 307.227 150C306.759 149.987 306.29 149.981 305.821 149.981C305.34 149.981 304.852 149.987 304.358 150C303.877 150.013 303.396 150.019 302.914 150.019C302.876 149.829 302.876 149.626 302.914 149.411C303.535 149.348 303.966 149.291 304.206 149.24C304.447 149.177 304.567 149.025 304.567 148.784C304.567 148.683 304.548 148.569 304.51 148.442C304.472 148.315 304.422 148.157 304.358 147.967L303.275 145.041H299L298.05 147.663C297.962 147.904 297.892 148.106 297.841 148.271C297.803 148.423 297.784 148.562 297.784 148.689C297.784 148.968 297.911 149.145 298.164 149.221C298.43 149.284 298.861 149.348 299.456 149.411C299.482 149.626 299.482 149.829 299.456 150.019C299.026 150.019 298.601 150.013 298.183 150C297.765 149.987 297.341 149.981 296.91 149.981C296.556 149.981 296.214 149.987 295.884 150C295.555 150.013 295.2 150.019 294.82 150.019ZM299.285 144.243H302.99L301.128 139.189L299.285 144.243ZM317.137 150.285C315.706 150.285 314.458 150.019 313.394 149.487C312.33 148.955 311.5 148.182 310.905 147.169C310.322 146.156 310.031 144.94 310.031 143.521C310.031 142.102 310.322 140.867 310.905 139.816C311.5 138.765 312.33 137.948 313.394 137.365C314.471 136.782 315.731 136.491 317.175 136.491C317.656 136.491 318.169 136.529 318.714 136.605C319.259 136.668 319.727 136.757 320.12 136.871C320.361 136.934 320.582 136.991 320.785 137.042C320.988 137.093 321.19 137.118 321.393 137.118C321.545 137.118 321.697 137.099 321.849 137.061C321.874 137.618 321.9 138.195 321.925 138.79C321.95 139.385 321.988 140.006 322.039 140.652C321.773 140.69 321.551 140.703 321.374 140.69C321.121 139.525 320.658 138.663 319.987 138.106C319.316 137.536 318.423 137.251 317.308 137.251C316.421 137.251 315.661 137.416 315.028 137.745C314.407 138.062 313.901 138.499 313.508 139.056C313.128 139.613 312.849 140.259 312.672 140.994C312.495 141.716 312.406 142.489 312.406 143.312C312.406 144.515 312.59 145.579 312.957 146.504C313.324 147.429 313.882 148.157 314.629 148.689C315.389 149.208 316.339 149.468 317.479 149.468C317.834 149.468 318.226 149.436 318.657 149.373C319.088 149.297 319.499 149.183 319.892 149.031V146.637C319.892 146.244 319.873 145.94 319.835 145.725C319.81 145.497 319.727 145.332 319.588 145.231C319.461 145.13 319.252 145.06 318.961 145.022C318.682 144.971 318.296 144.927 317.802 144.889C317.764 144.686 317.764 144.484 317.802 144.281C318.068 144.281 318.391 144.287 318.771 144.3C319.151 144.3 319.531 144.306 319.911 144.319C320.304 144.319 320.627 144.319 320.88 144.319C321.273 144.319 321.722 144.313 322.229 144.3C322.748 144.287 323.192 144.281 323.559 144.281C323.584 144.471 323.584 144.667 323.559 144.87C323.04 144.933 322.666 144.997 322.438 145.06C322.21 145.123 322.071 145.25 322.02 145.44C321.969 145.63 321.944 145.953 321.944 146.409V147.017C321.944 147.612 321.957 148.113 321.982 148.518C322.02 148.923 322.052 149.215 322.077 149.392C320.316 149.987 318.67 150.285 317.137 150.285ZM326.202 150.019C326.176 149.829 326.176 149.626 326.202 149.411C326.797 149.348 327.221 149.291 327.475 149.24C327.728 149.177 327.886 149.05 327.95 148.86C328.013 148.657 328.045 148.334 328.045 147.891V139.056C328.045 138.524 328.013 138.144 327.95 137.916C327.886 137.688 327.722 137.542 327.456 137.479C327.202 137.403 326.784 137.34 326.202 137.289C326.176 137.099 326.176 136.896 326.202 136.681C326.531 136.681 326.816 136.687 327.057 136.7C327.31 136.7 327.563 136.7 327.817 136.7C328.07 136.7 328.374 136.706 328.729 136.719C329.083 136.719 329.533 136.719 330.078 136.719C331.078 136.719 332.016 136.719 332.89 136.719C333.764 136.706 334.492 136.7 335.075 136.7C335.657 136.687 335.999 136.681 336.101 136.681C336.151 137.15 336.208 137.631 336.272 138.125C336.348 138.619 336.43 139.145 336.519 139.702C336.303 139.727 336.094 139.727 335.892 139.702C335.74 139.322 335.562 138.986 335.36 138.695C335.157 138.404 334.948 138.182 334.733 138.03C334.492 137.853 334.201 137.72 333.859 137.631C333.529 137.542 333.118 137.498 332.624 137.498H330.135V142.685H331.18C331.788 142.685 332.25 142.647 332.567 142.571C332.883 142.482 333.118 142.299 333.27 142.02C333.422 141.729 333.542 141.273 333.631 140.652C333.859 140.614 334.074 140.614 334.277 140.652C334.264 141.209 334.251 141.64 334.239 141.944C334.239 142.235 334.239 142.451 334.239 142.59C334.239 142.729 334.239 142.843 334.239 142.932C334.239 143.008 334.239 143.071 334.239 143.122L334.277 145.63C334.087 145.668 333.871 145.668 333.631 145.63C333.555 144.959 333.441 144.477 333.289 144.186C333.137 143.895 332.909 143.711 332.605 143.635C332.313 143.559 331.895 143.521 331.351 143.521H330.135V147.644C330.135 148.075 330.135 148.423 330.135 148.689C330.147 148.942 330.16 149.107 330.173 149.183H332.776C333.409 149.183 333.916 149.132 334.296 149.031C334.688 148.917 335.011 148.752 335.265 148.537C335.442 148.398 335.651 148.157 335.892 147.815C336.132 147.46 336.36 147.055 336.576 146.599C336.778 146.574 336.975 146.574 337.165 146.599C337.038 147.308 336.93 147.948 336.842 148.518C336.753 149.088 336.677 149.582 336.614 150C336.044 150 335.423 150 334.752 150C334.08 150 333.409 150 332.738 150C332.066 149.987 331.452 149.981 330.895 149.981C330.35 149.981 329.913 149.981 329.584 149.981C328.988 149.981 328.501 149.987 328.121 150C327.753 150 327.424 150 327.133 150C326.854 150.013 326.544 150.019 326.202 150.019ZM348.406 147.112L352.472 136.7C352.738 136.713 353.017 136.719 353.308 136.719C353.599 136.719 353.846 136.719 354.049 136.719C354.15 136.719 354.334 136.719 354.6 136.719C354.879 136.706 355.176 136.7 355.493 136.7C355.822 136.7 356.12 136.7 356.386 136.7C356.665 136.687 356.855 136.681 356.956 136.681C356.994 136.871 356.994 137.067 356.956 137.27H356.918C356.335 137.333 355.911 137.397 355.645 137.46C355.379 137.511 355.214 137.637 355.151 137.84C355.1 138.03 355.075 138.347 355.075 138.79L355.227 147.663C355.227 148.056 355.24 148.366 355.265 148.594C355.29 148.822 355.36 148.987 355.474 149.088C355.588 149.189 355.772 149.265 356.025 149.316C356.278 149.354 356.639 149.392 357.108 149.43C357.146 149.62 357.146 149.816 357.108 150.019C357.007 150.019 356.817 150.013 356.538 150C356.272 150 355.974 150 355.645 150C355.328 150 355.031 150 354.752 150C354.486 149.987 354.302 149.981 354.201 149.981C354.1 149.981 353.916 149.987 353.65 150C353.384 150 353.093 150 352.776 150C352.459 150 352.168 150 351.902 150C351.636 150.013 351.452 150.019 351.351 150.019C351.338 149.829 351.338 149.633 351.351 149.43H351.389C351.946 149.367 352.352 149.31 352.605 149.259C352.858 149.196 353.01 149.069 353.061 148.879C353.124 148.676 353.156 148.353 353.156 147.91L352.985 137.726L348.197 149.981C348.108 150.019 347.969 150.044 347.779 150.057C347.589 150.07 347.424 150.076 347.285 150.076L342.782 138.125L342.478 147.91C342.465 148.328 342.484 148.632 342.535 148.822C342.586 148.999 342.738 149.126 342.991 149.202C343.244 149.278 343.669 149.354 344.264 149.43C344.315 149.633 344.315 149.829 344.264 150.019C344.137 150.019 343.916 150.013 343.599 150C343.295 150 342.985 150 342.668 150C342.364 149.987 342.142 149.981 342.003 149.981C341.927 149.981 341.775 149.987 341.547 150C341.332 150 341.091 150 340.825 150C340.559 150 340.312 150 340.084 150C339.869 150.013 339.723 150.019 339.647 150.019C339.622 149.816 339.622 149.62 339.647 149.43C340.242 149.354 340.667 149.278 340.92 149.202C341.173 149.126 341.332 148.974 341.395 148.746C341.471 148.518 341.515 148.157 341.528 147.663L341.889 138.79C341.914 138.347 341.895 138.03 341.832 137.84C341.769 137.65 341.598 137.523 341.319 137.46C341.053 137.384 340.61 137.321 339.989 137.27C339.976 137.067 339.976 136.871 339.989 136.681C340.42 136.681 340.863 136.687 341.319 136.7C341.775 136.713 342.282 136.719 342.839 136.719C343.029 136.719 343.282 136.719 343.599 136.719C343.916 136.719 344.207 136.713 344.473 136.7L348.406 147.112ZM359.801 150.019C359.776 149.829 359.776 149.626 359.801 149.411C360.397 149.348 360.821 149.291 361.074 149.24C361.328 149.177 361.486 149.05 361.549 148.86C361.613 148.657 361.644 148.334 361.644 147.891V139.056C361.644 138.524 361.613 138.144 361.549 137.916C361.486 137.688 361.321 137.542 361.055 137.479C360.802 137.403 360.384 137.34 359.801 137.289C359.776 137.099 359.776 136.896 359.801 136.681C360.131 136.681 360.416 136.687 360.656 136.7C360.91 136.7 361.163 136.7 361.416 136.7C361.67 136.7 361.974 136.706 362.328 136.719C362.683 136.719 363.133 136.719 363.677 136.719C364.678 136.719 365.615 136.719 366.489 136.719C367.363 136.706 368.092 136.7 368.674 136.7C369.257 136.687 369.599 136.681 369.7 136.681C369.751 137.15 369.808 137.631 369.871 138.125C369.947 138.619 370.03 139.145 370.118 139.702C369.903 139.727 369.694 139.727 369.491 139.702C369.339 139.322 369.162 138.986 368.959 138.695C368.757 138.404 368.548 138.182 368.332 138.03C368.092 137.853 367.8 137.72 367.458 137.631C367.129 137.542 366.717 137.498 366.223 137.498H363.734V142.685H364.779C365.387 142.685 365.85 142.647 366.166 142.571C366.483 142.482 366.717 142.299 366.869 142.02C367.021 141.729 367.142 141.273 367.23 140.652C367.458 140.614 367.674 140.614 367.876 140.652C367.864 141.209 367.851 141.64 367.838 141.944C367.838 142.235 367.838 142.451 367.838 142.59C367.838 142.729 367.838 142.843 367.838 142.932C367.838 143.008 367.838 143.071 367.838 143.122L367.876 145.63C367.686 145.668 367.471 145.668 367.23 145.63C367.154 144.959 367.04 144.477 366.888 144.186C366.736 143.895 366.508 143.711 366.204 143.635C365.913 143.559 365.495 143.521 364.95 143.521H363.734V147.644C363.734 148.075 363.734 148.423 363.734 148.689C363.747 148.942 363.76 149.107 363.772 149.183H366.375C367.009 149.183 367.515 149.132 367.895 149.031C368.288 148.917 368.611 148.752 368.864 148.537C369.042 148.398 369.251 148.157 369.491 147.815C369.732 147.46 369.96 147.055 370.175 146.599C370.378 146.574 370.574 146.574 370.764 146.599C370.638 147.308 370.53 147.948 370.441 148.518C370.353 149.088 370.277 149.582 370.213 150C369.643 150 369.023 150 368.351 150C367.68 150 367.009 150 366.337 150C365.666 149.987 365.052 149.981 364.494 149.981C363.95 149.981 363.513 149.981 363.183 149.981C362.588 149.981 362.1 149.987 361.72 150C361.353 150 361.024 150 360.732 150C360.454 150.013 360.143 150.019 359.801 150.019ZM384.647 150.133L376.192 139.037V147.169C376.192 147.65 376.204 148.024 376.23 148.29C376.255 148.543 376.331 148.74 376.458 148.879C376.584 149.006 376.781 149.113 377.047 149.202C377.313 149.291 377.693 149.36 378.187 149.411C378.212 149.614 378.212 149.816 378.187 150.019C377.807 150.019 377.382 150.013 376.914 150C376.458 149.987 376.071 149.981 375.755 149.981C375.438 149.981 375.045 149.987 374.577 150C374.121 150.013 373.709 150.019 373.342 150.019C373.304 149.829 373.304 149.626 373.342 149.411C373.798 149.348 374.152 149.291 374.406 149.24C374.659 149.177 374.843 149.088 374.957 148.974C375.071 148.847 375.14 148.664 375.166 148.423C375.204 148.182 375.223 147.847 375.223 147.416V139.626C375.223 139.119 375.204 138.72 375.166 138.429C375.14 138.138 375.058 137.922 374.919 137.783C374.792 137.631 374.589 137.523 374.311 137.46C374.045 137.384 373.671 137.321 373.19 137.27C373.177 137.08 373.177 136.884 373.19 136.681C373.582 136.681 374 136.687 374.444 136.7C374.887 136.713 375.33 136.719 375.774 136.719C375.837 136.719 376.008 136.719 376.287 136.719C376.578 136.719 376.831 136.713 377.047 136.7L384.761 146.846V139.55C384.761 139.069 384.748 138.695 384.723 138.429C384.71 138.163 384.634 137.967 384.495 137.84C384.229 137.561 383.589 137.384 382.576 137.308C382.538 137.093 382.538 136.89 382.576 136.7C382.816 136.7 383.101 136.706 383.431 136.719C383.773 136.719 384.102 136.725 384.419 136.738C384.735 136.738 384.995 136.738 385.198 136.738C385.514 136.738 385.907 136.732 386.376 136.719C386.844 136.706 387.262 136.7 387.63 136.7C387.655 136.89 387.655 137.086 387.63 137.289C387.022 137.365 386.585 137.454 386.319 137.555C386.053 137.644 385.888 137.815 385.825 138.068C385.761 138.321 385.73 138.733 385.73 139.303V150.038C385.603 150.063 385.432 150.082 385.217 150.095C385.001 150.12 384.811 150.133 384.647 150.133ZM392.911 150.019C392.886 149.829 392.886 149.626 392.911 149.411C393.544 149.348 393.994 149.291 394.26 149.24C394.526 149.177 394.691 149.05 394.754 148.86C394.817 148.67 394.849 148.347 394.849 147.891V137.517H393.481C392.81 137.517 392.278 137.612 391.885 137.802C391.505 137.979 391.195 138.252 390.954 138.619C390.726 138.986 390.498 139.455 390.27 140.025C390.067 140.05 389.865 140.05 389.662 140.025C389.738 139.417 389.808 138.834 389.871 138.277C389.947 137.72 390.01 137.181 390.061 136.662C390.884 136.713 391.796 136.744 392.797 136.757C393.798 136.757 394.836 136.757 395.913 136.757C397.002 136.757 398.047 136.757 399.048 136.757C400.061 136.744 400.973 136.713 401.784 136.662C401.835 137.169 401.885 137.707 401.936 138.277C401.987 138.834 402.05 139.417 402.126 140.025C401.911 140.05 401.702 140.05 401.499 140.025C401.258 139.442 401.018 138.967 400.777 138.6C400.536 138.233 400.226 137.96 399.846 137.783C399.479 137.606 398.959 137.517 398.288 137.517H396.939V147.644C396.939 148.037 396.952 148.347 396.977 148.575C397.002 148.803 397.072 148.968 397.186 149.069C397.313 149.17 397.509 149.246 397.775 149.297C398.041 149.335 398.408 149.373 398.877 149.411C398.915 149.614 398.915 149.816 398.877 150.019C398.611 150.019 398.288 150.013 397.908 150C397.541 150 397.173 150 396.806 150C396.439 149.987 396.128 149.981 395.875 149.981C395.634 149.981 395.33 149.987 394.963 150C394.608 150 394.241 150 393.861 150C393.494 150.013 393.177 150.019 392.911 150.019Z" fill="url(#paint0_linear_304_823)"/>
<path d="M66 2.29989L68.3326 0L111.408 46.611L122.76 59.0304L126.026 62.7103L128.825 66.3901L131.158 70.2232L133.179 74.363L136.289 82.4893L138 92.9154V97.9752L137.689 102.575L137.222 107.328L136.289 111.928L134.423 116.068L132.091 119.747L129.603 123.427L126.648 126.8L123.382 129.56L119.495 131.86L115.607 133.547L111.408 135.08L103.944 136L96.7905 135.847L89.3261 133.853L83.5724 130.787L78.4406 125.114L74.5529 118.521L72.6868 112.234L71.9093 104.875L72.6868 98.4352L74.5529 92.9154L77.1965 87.0891L81.7063 81.7227L83.5724 79.8827L85.7495 78.5028L88.5486 77.4295L91.1922 76.9696H93.6803L96.1685 77.1229L98.5011 77.2762L100.834 77.8895L102.855 78.8095L104.721 80.3427L106.121 82.0293L107.054 84.0225V87.7024H106.121L105.499 85.2492L104.255 83.1026L102.078 80.8027L98.8121 79.1161L94.9244 78.8095L91.6587 79.1161L88.5486 79.7294L86.838 80.4961L85.2829 81.5693L83.1058 83.8692L80.6177 86.6291L78.9071 89.3889L77.6631 92.1488L76.419 95.522L75.486 99.0485L75.0194 101.808V105.335L75.486 109.015L76.419 112.694L78.1296 116.221L79.9957 119.747L82.7948 122.507L85.594 125.114L89.3261 127.414L92.9028 128.947L96.7905 129.56H100.367H103.944L107.676 129.1L111.253 128.027L105.032 127.874L99.4341 126.8L94.4579 125.114L90.2592 122.047L86.9935 118.521L85.4384 116.528L84.3499 114.381L83.5724 112.234L82.9503 110.088L82.7948 107.941L83.1058 105.795L84.1944 108.708L85.594 111.468L88.8596 116.681L90.8812 118.828L93.3693 120.821L96.324 122.507L99.4341 123.427L105.499 124.194L111.408 124.041L114.829 123.274L118.095 122.047L121.672 119.901L124.782 117.448L128.359 113.768L130.691 109.628L132.402 103.955L133.179 98.4352L131.313 101.655L129.292 104.875L128.203 106.408L126.959 107.788L125.715 109.015L124.16 110.241L122.605 111.468L120.894 112.694L117.317 114.228L115.607 114.688L113.896 114.841H112.186L110.32 114.688L115.607 112.694L117.94 111.775L119.961 110.548L122.138 108.861L124.16 106.868L126.026 104.722L127.581 102.268L128.67 100.122L129.603 97.8219L130.691 92.9154L131.158 86.6291L129.758 79.2694L127.114 72.9831L123.227 67.31L119.028 61.637L114.207 56.5772L66 2.29989Z" fill="url(#paint1_linear_304_823)"/>
<path d="M71 2.6036L68.8235 0L26.1463 46.7117L14.9845 59.1171L11.7735 62.7928L9.02125 66.4685L6.72772 70.2973L4.73998 74.4324L1.68194 82.5495L3.25324e-06 92.964V98.018L0.30581 102.613L0.764519 107.36L1.68194 111.955L3.51676 116.09L5.8103 119.766L8.25674 123.441L11.1619 126.811L14.3728 129.568L18.1954 131.865L22.018 133.55L26.1463 135.081L33.4857 136L40.5192 135.847L47.8585 133.856L53.5159 130.793L58.5617 125.126L62.3843 118.541L64.2191 112.261L64.9836 104.91L64.2191 98.4775L62.3843 92.964L59.7849 87.1441L55.3507 81.7838L53.5159 79.9459L51.3753 78.5676L48.623 77.4955L46.0237 77.036H43.5773L41.1308 77.1892L38.8373 77.3423L36.5437 77.955L34.556 78.8739L32.7212 80.4054L31.3451 82.0901L30.4276 84.0811V87.7568H31.3451L31.9567 85.3063L33.1799 83.1622L35.3205 80.8649L38.5315 79.1802L42.354 78.8739L45.565 79.1802L48.623 79.9459L50.305 80.5586L51.834 81.6306L53.9746 83.9279L56.4211 86.6847L58.103 89.4414L59.3262 92.1982L60.5494 95.5676L61.4669 99.0901L61.9256 101.847V105.369L61.4669 109.045L60.5494 112.721L58.8675 116.243L57.0327 119.766L54.2804 122.523L51.5282 125.126L47.8585 127.423L44.3418 128.955L40.5192 129.568H37.0024H33.4857L29.816 129.108L26.2992 128.036L32.4154 127.883L37.9199 126.811L42.8127 125.126L46.9411 122.063L50.1521 118.541L51.6811 116.55L52.7514 114.405L53.5159 112.261L54.1275 110.117L54.2804 107.973L53.9746 105.829L52.9043 108.739L51.5282 111.495L48.3172 116.703L46.3295 118.847L43.8831 120.838L40.9779 122.523L37.9199 123.441L31.9567 124.207L26.1463 124.054L22.7825 123.288L19.5715 122.063L16.0548 119.919L12.9967 117.468L9.47996 113.793L7.18642 109.658L5.5045 103.991L4.73998 98.4775L6.57481 101.694L8.56255 104.91L9.63287 106.441L10.8561 107.82L12.0793 109.045L13.6083 110.27L15.1374 111.495L16.8193 112.721L20.336 114.252L22.018 114.712L23.6999 114.865H25.3818L27.2167 114.712L22.018 112.721L19.7244 111.802L17.7367 110.577L15.5961 108.892L13.6083 106.901L11.7735 104.757L10.2445 102.306L9.17416 100.162L8.25674 97.8649L7.18642 92.964L6.72772 86.6847L8.10384 79.3333L10.7032 73.054L14.5257 67.3874L18.6541 61.7207L23.3941 56.6667L71 2.6036Z" fill="url(#paint2_linear_304_823)"/>
<path d="M58 28.75L58.5057 28.5L59.0115 28.75L59.2644 29L59.5172 29.75L59.7701 30.5L60.2759 31.75L61.2874 33.25L62.2989 34.5L62.8046 35L63.8161 35.25L65.0805 34.75L66.092 33.5L66.8506 31.5L67.3563 29.25L67.8621 26.5L68.1149 24.75L68.3678 23L68.6207 21.25L68.8736 21L69.3793 21.25L69.6322 22L69.8851 25L70.3908 29L70.8966 31L71.6552 33L71.908 33.5L72.4138 34.25L72.9195 34.75L73.6782 35.25H74.4368L75.1954 35L75.954 34.5L76.4598 34L77.2184 32.75L77.977 31.5L78.7356 30L79.2414 28.75L79.7471 28.5L80 28.75L77.977 43.25L73.931 43.75L68.8736 44L64.3218 43.75L60.2759 43L58 28.75Z" fill="url(#paint3_linear_304_823)"/>
<ellipse cx="58" cy="28.5" rx="1" ry="1.5" fill="url(#paint4_linear_304_823)"/>
<circle cx="69" cy="22" r="1" fill="url(#paint5_linear_304_823)"/>
<path d="M217.62 100.16H182.356L184.636 90.584H215.036L217.62 100.16ZM200.748 56.84L177.796 126H165.18L199.076 29.936H202.724L236.62 126H223.548L200.748 56.84ZM289.516 127.52C284.348 127.52 279.484 126.608 274.924 124.784C270.465 122.859 266.513 119.92 263.068 115.968C259.724 112.016 257.089 107 255.164 100.92C253.239 94.84 252.276 87.5947 252.276 79.184C252.276 71.7867 252.985 65.352 254.404 59.88C255.823 54.3067 257.748 49.6453 260.18 45.896C262.713 42.0453 265.551 39.0053 268.692 36.776C271.935 34.5467 275.279 32.9253 278.724 31.912C282.271 30.8987 285.817 30.392 289.364 30.392C296.356 30.392 302.284 32.064 307.148 35.408C312.113 38.752 315.863 43.2613 318.396 48.936L308.668 54.56L307.3 55.168L306.844 54.104C307.047 53.2933 306.996 52.5333 306.692 51.824C306.388 51.1147 305.831 50.0507 305.02 48.632C302.588 45.4907 300.055 43.3627 297.42 42.248C294.887 41.1333 292.201 40.576 289.364 40.576C285.817 40.576 282.524 41.4373 279.484 43.16C276.444 44.7813 273.809 47.2133 271.58 50.456C269.351 53.6987 267.628 57.7013 266.412 62.464C265.297 67.1253 264.74 72.4453 264.74 78.424C264.74 84.2 265.348 89.4693 266.564 94.232C267.881 98.8933 269.655 102.896 271.884 106.24C274.113 109.584 276.697 112.168 279.636 113.992C282.676 115.816 285.919 116.728 289.364 116.728C291.897 116.728 294.279 116.323 296.508 115.512C298.839 114.701 300.967 113.435 302.892 111.712C304.817 109.989 306.489 107.963 307.908 105.632L317.028 112.016C313.887 117.285 310.087 121.187 305.628 123.72C301.169 126.253 295.799 127.52 289.516 127.52ZM338.612 126V31.152H397.892V42.096H350.924V70.976H389.684V82.224H350.924V115.056H397.436V126H338.612Z" fill="url(#paint6_linear_304_823)"/>
<line x1="164" y1="156.5" x2="397" y2="156.5" stroke="#E5C85C"/>
<path d="M66.75 155.616L69.6719 150L72.25 155.616L75 160L69.6719 159.726L64 160L66.75 155.616Z" fill="url(#paint7_linear_304_823)"/>
<path d="M70.0325 126L69.7148 141.793L67.3321 147.715L64.4729 153.333L61.1372 158.193L57.0072 162.748L64.7906 162.444H69.8736H75.4332L80.9928 162.748L77.3394 158.193L73.8448 152.726L71.4621 147.715L69.7148 141.793L70.0325 126L72.2563 138.604L73.6065 144.07L75.9097 149.233L78.2924 153.941L81.4693 158.193L85.4404 162.748L91 167L85.4404 166.089L80.5162 165.633L74.7978 165.33H69.2383H63.0433L57.0072 165.633L47 167L51.4477 163.356L55.7365 159.256L59.7076 154.548L62.7256 149.233L65.1083 144.07L66.6968 138.604L70.0325 126Z" fill="url(#paint8_linear_304_823)"/>
<path d="M71.3423 168L83.3304 168.87L91.8482 170.261L98 172H45L51.3095 170.261L58.4077 168.87L71.3423 168Z" fill="url(#paint9_linear_304_823)"/>
<path d="M65 132L64.8421 136.018L64.2105 139.887L62.9474 143.607L61.2105 147.03L57.8947 151.94L53 157L56.6316 150.899L59.9474 145.095L62.9474 138.548L65 132Z" fill="url(#paint10_linear_304_823)"/>
<path d="M116.928 40.1518C120.199 39.1144 123.477 38.8856 126.792 39.0468C127.02 39.0578 127.244 39.1307 127.471 39.1632C127.852 39.2176 128.008 39.4428 128 39.8578C127.991 40.2976 127.772 40.4318 127.407 40.4816C126.129 40.6558 124.844 40.7541 123.581 41.0774C119.408 42.1459 115.851 44.5055 112.486 47.2472C106.485 52.1377 101.681 58.2557 97.338 64.8095C92.3559 72.3272 87.9114 80.2271 83.4143 88.0859C82.4661 89.7428 81.6145 91.4811 81.1162 93.3766C80.9145 94.1438 80.6293 95.0177 81.2697 95.6507C81.9694 96.3424 82.7709 95.8651 83.434 95.4801C85.4861 94.2886 86.9153 92.3674 88.2533 90.3829C89.3001 88.8302 90.2504 87.2015 91.2434 85.6064C91.4173 85.3271 91.6077 85.1085 91.9427 85.3607C92.2543 85.5953 92.0964 85.8547 91.959 86.0863C90.0998 89.2194 88.2953 92.399 85.6198 94.8437C85.0258 95.3864 84.4136 95.8963 83.6971 96.2398C81.1937 97.4397 79.2275 96.1158 79.1442 93.1625C79.0886 91.1911 79.6869 89.385 80.4003 87.6145C82.0118 83.6153 84.2045 79.9755 86.3882 76.3297C87.043 75.2365 87.6579 74.1151 88.3202 73.0274C88.613 72.5467 88.5915 72.2548 88.133 71.8856C85.7513 69.9677 85.7362 70.0157 83.7358 72.3478C78.6631 78.2615 73.7552 84.3458 68.3946 89.9643C63.3144 95.289 57.939 100.212 51.7354 103.999C47.4867 106.592 43.0183 108.452 38.1295 108.881C35.3806 109.122 32.6227 109.064 29.9567 108.081C24.9817 106.245 22.3868 102.243 21.436 96.8945C20.4013 91.0737 21.2992 85.4128 23.1711 79.9306C26.3291 70.6814 31.3739 62.8479 38.5398 56.682C42.6287 53.1637 47.0961 50.409 52.3085 49.3688C55.6313 48.7056 58.9729 48.474 62.2611 49.6615C66.1675 51.0723 68.4992 54.4558 68.754 58.8998C68.8547 60.6569 68.9425 62.4056 68.7704 64.2388C70.1401 64.2161 71.4487 64.2352 72.7579 64.3071C76.0769 64.4894 79.3024 65.1406 82.4269 66.3397C83.1107 66.6021 83.5038 66.4447 83.9863 65.9022C89.1007 60.1526 94.2675 54.4603 100.184 49.6419C105.265 45.504 110.721 42.134 116.928 40.1518ZM29.4185 75.49C27.4624 79.5087 25.8613 83.6807 24.8615 88.0988C23.9832 91.9804 23.5207 95.8944 24.4553 99.8508C25.4247 103.954 27.5823 106.773 31.6499 107.468C34.0285 107.875 36.3974 107.718 38.7522 107.247C43.1113 106.376 46.8713 104.078 50.4885 101.452C56.0506 97.413 60.8714 92.4499 65.5 87.2655C70.901 81.2161 75.9625 74.8243 81.373 68.7828C81.488 68.6544 81.6405 68.5381 81.6238 68.3132C81.5305 68.0961 81.3267 68.051 81.1421 67.9758C77.2562 66.3928 73.2203 65.7746 69.0855 65.7577C68.5162 65.7554 68.3421 66.0756 68.2395 66.5764C66.5691 74.7266 62.9544 81.7914 57.8897 88.0236C55.5891 90.8545 52.7915 92.9118 49.3875 93.916C44.9311 95.2308 40.9427 92.8847 39.9238 88.3249C39.2649 85.3764 39.9169 82.6164 41.0474 79.9408C42.684 76.0677 45.5083 73.3737 48.6975 71.0754C54.2247 67.0922 60.4077 65.1904 66.962 64.5607C67.7159 64.4883 67.9766 64.1994 67.9638 63.4389C67.9418 62.137 67.9762 60.8336 67.9389 59.5324C67.8024 54.7685 65.1323 51.3231 60.8399 50.2966C58.0326 49.6253 55.2945 50.0185 52.6251 50.9805C47.61 52.7879 43.4757 56.1019 39.7806 60.0829C35.6024 64.5846 32.2721 69.7706 29.4185 75.49ZM44.9417 75.5175C44.3584 76.2829 43.7036 76.9979 43.2046 77.8227C41.4493 80.7242 40.1377 83.7738 40.6232 87.4014C41.1547 91.3727 44.5097 93.9747 48.1752 93.2906C51.2384 92.7189 53.802 91.1415 55.945 88.805C61.5843 82.6567 65.4319 75.3948 67.3243 66.9575C67.4038 66.6028 67.5306 66.2454 67.294 65.8696C65.4576 65.8887 63.6482 66.1696 61.8418 66.5028C55.4213 67.6872 49.7675 70.5509 44.9417 75.5175ZM94.7487 63.2417C99.6379 56.4163 105.102 50.2191 111.662 45.2168C102.075 51.2475 94.7429 60.0336 87.0277 68.5034C88.0118 69.2098 88.8816 69.8342 89.7888 70.4854C91.4425 68.0697 93.0587 65.7088 94.7487 63.2417Z" fill="url(#paint11_linear_304_823)"/>
<path d="M61 44L64.3153 44.3866L68.6396 44.5882L72.6757 44.4874L77 44.1849L76.7117 45.4958L72.6757 45.8992L68.6396 46L64.3153 45.7983L61.2883 45.4118L61 44Z" fill="#EBD061"/>
<path d="M68.4941 35.0477H68.3455L68.23 35.0953L67.9492 35.0477L67.652 35L67.4044 35.0238L67.1649 35.0953L66.9668 35.1986L66.7934 35.3337L66.6861 35.4608L66.6118 35.5959L66.554 35.731L66.521 35.8978L66.5045 36.0568V36.2395L66.521 36.4222L66.62 36.6209L66.8925 36.891L68.2382 37.916V37.2804L67.4374 36.6765L67.2062 36.5017L66.9916 36.319L66.9173 36.1442L66.8925 35.9694L66.9173 35.7946L67.0246 35.58L67.1649 35.4291L67.3878 35.294L67.652 35.2543L67.9492 35.294L68.1639 35.4132L68.3125 35.58L68.3786 35.882H68.4941V35.0477Z" fill="#825B00"/>
<path d="M68.0805 36.5889H69.5005V36.708H69.3189L69.195 36.7557L69.0877 36.8431L69.0464 36.9305L69.0299 37.0497V37.1689V37.4311V37.9555L69.0382 38.3607L69.063 38.4481L69.0877 38.5673V38.7262L69.0795 38.9646L69.0464 39.1314L69.0052 39.2506L68.8566 39.4731L68.6832 39.6638L68.4768 39.8306L68.2374 39.9657L67.9567 40.0372L67.676 40.0849H67.3953L67.1558 40.069L66.9412 40.0054L66.743 39.9339L66.5614 39.8306L66.4045 39.7273L66.289 39.6161L66.1816 39.481L66.0991 39.338L66.033 39.1473L66.0083 38.9646L66 38.7818L66.0083 38.5991L66.0578 38.3687L66.1486 38.1462L66.2559 37.9555L66.4045 37.7807L66.5366 37.6933L66.3798 37.9952L66.289 38.2654L66.2147 38.5276V38.7818L66.2229 38.9566L66.2724 39.1235L66.3467 39.2665L66.4293 39.3698L66.5119 39.4651L66.6109 39.5605L66.7265 39.632L66.9412 39.7273L67.2054 39.775L67.4696 39.7989L67.7337 39.7671L67.9814 39.6876L68.2043 39.5605L68.3942 39.3777L68.485 39.2586L68.5346 39.1314L68.5924 38.8851L68.6089 38.6309L68.5924 37.8601V37.1371L68.5759 36.9941L68.5346 36.9067L68.4933 36.8272L68.419 36.7557L68.3034 36.708H68.0805V36.5889Z" fill="#825B00"/>
<path d="M70.4739 36.5732H71.9104V36.6845H71.8114L71.6545 36.6924L71.5059 36.7401L71.3656 36.8354L69.7144 38.6232L71.8031 40.7764L72.1499 41.126L72.5709 41.4438L72.8186 41.563L73.0993 41.6902L73.3883 41.7776L73.6112 41.8411L73.7928 41.8967L73.9992 41.9444V42H73.6112H73.3057L72.992 41.9762L72.6865 41.8967L72.4223 41.8093L72.1829 41.6902L71.9682 41.563L71.7536 41.42L69.1777 38.79L70.7876 36.8354L70.7299 36.7322L70.606 36.6845L70.4739 36.6765V36.5732Z" fill="#825B00"/>
<path d="M68.5511 40.1409L69.0382 39.7754V40.6176L69.1125 40.7368L69.2364 40.8083L69.3684 40.856L69.5005 40.8798V40.9831H68.0723V40.8798L68.2291 40.856L68.353 40.8083L68.4768 40.7368L68.5511 40.6176V40.1409Z" fill="#825B00"/>
<circle cx="79.5" cy="28.5" r="1.5" fill="url(#paint12_linear_304_823)"/>
<defs>
<linearGradient id="paint0_linear_304_823" x1="285" y1="133" x2="285" y2="158" gradientUnits="userSpaceOnUse">
<stop stop-color="#98660F"/>
<stop offset="0.425" stop-color="#F7E47D"/>
<stop offset="0.735" stop-color="#C4931D"/>
<stop offset="1" stop-color="#FBEB7C"/>
</linearGradient>
<linearGradient id="paint1_linear_304_823" x1="102" y1="0" x2="102" y2="136" gradientUnits="userSpaceOnUse">
<stop stop-color="#B1861E"/>
<stop offset="0.305" stop-color="#F7E67E"/>
<stop offset="0.54" stop-color="#C3901B"/>
<stop offset="0.765" stop-color="#F7E47D"/>
<stop offset="1" stop-color="#94761E"/>
</linearGradient>
<linearGradient id="paint2_linear_304_823" x1="35.5" y1="0" x2="35.5" y2="136" gradientUnits="userSpaceOnUse">
<stop stop-color="#B1861E"/>
<stop offset="0.305" stop-color="#F7E67E"/>
<stop offset="0.54" stop-color="#C3901B"/>
<stop offset="0.765" stop-color="#F7E47D"/>
<stop offset="1" stop-color="#94761E"/>
</linearGradient>
<linearGradient id="paint3_linear_304_823" x1="69" y1="21" x2="69" y2="44" gradientUnits="userSpaceOnUse">
<stop stop-color="#B07318"/>
<stop offset="0.35" stop-color="#F5E47C"/>
<stop offset="0.65" stop-color="#C4931E"/>
<stop offset="1" stop-color="#F1D96B"/>
</linearGradient>
<linearGradient id="paint4_linear_304_823" x1="58" y1="27" x2="58" y2="30" gradientUnits="userSpaceOnUse">
<stop stop-color="#B07318"/>
<stop offset="0.35" stop-color="#F5E47C"/>
<stop offset="0.65" stop-color="#C4931E"/>
<stop offset="1" stop-color="#F1D96B"/>
</linearGradient>
<linearGradient id="paint5_linear_304_823" x1="69" y1="21" x2="69" y2="23" gradientUnits="userSpaceOnUse">
<stop stop-color="#B07318"/>
<stop offset="0.35" stop-color="#F5E47C"/>
<stop offset="0.65" stop-color="#C4931E"/>
<stop offset="1" stop-color="#F1D96B"/>
</linearGradient>
<linearGradient id="paint6_linear_304_823" x1="284.5" y1="22" x2="284.5" y2="128" gradientUnits="userSpaceOnUse">
<stop stop-color="#98660F"/>
<stop offset="0.425" stop-color="#F7E47D"/>
<stop offset="0.735" stop-color="#C4931D"/>
<stop offset="1" stop-color="#FBEB7C"/>
</linearGradient>
<linearGradient id="paint7_linear_304_823" x1="69.5" y1="150" x2="69.5" y2="160" gradientUnits="userSpaceOnUse">
<stop stop-color="#B1861E"/>
<stop offset="0.305" stop-color="#F7E67E"/>
<stop offset="0.54" stop-color="#C3901B"/>
<stop offset="0.765" stop-color="#F7E47D"/>
<stop offset="1" stop-color="#94761E"/>
</linearGradient>
<linearGradient id="paint8_linear_304_823" x1="69" y1="126" x2="69" y2="167" gradientUnits="userSpaceOnUse">
<stop stop-color="#B1861E"/>
<stop offset="0.305" stop-color="#F7E67E"/>
<stop offset="0.54" stop-color="#C3901B"/>
<stop offset="0.765" stop-color="#F7E47D"/>
<stop offset="1" stop-color="#94761E"/>
</linearGradient>
<linearGradient id="paint9_linear_304_823" x1="71.5" y1="168" x2="71.5" y2="172" gradientUnits="userSpaceOnUse">
<stop stop-color="#B1861E"/>
<stop offset="0.305" stop-color="#F7E67E"/>
<stop offset="0.54" stop-color="#C3901B"/>
<stop offset="0.765" stop-color="#F7E47D"/>
<stop offset="1" stop-color="#94761E"/>
</linearGradient>
<linearGradient id="paint10_linear_304_823" x1="59" y1="132" x2="59" y2="157" gradientUnits="userSpaceOnUse">
<stop stop-color="#B1861E"/>
<stop offset="0.305" stop-color="#F7E67E"/>
<stop offset="0.54" stop-color="#C3901B"/>
<stop offset="0.765" stop-color="#F7E47D"/>
<stop offset="1" stop-color="#94761E"/>
</linearGradient>
<linearGradient id="paint11_linear_304_823" x1="74.5" y1="39" x2="74.5" y2="109" gradientUnits="userSpaceOnUse">
<stop stop-color="#B37C1D"/>
<stop offset="0.31" stop-color="#F7E67E"/>
<stop offset="0.555" stop-color="#C5921D"/>
<stop offset="0.805" stop-color="#F7E47D"/>
<stop offset="1" stop-color="#CA931E"/>
</linearGradient>
<linearGradient id="paint12_linear_304_823" x1="79.5" y1="27" x2="79.5" y2="30" gradientUnits="userSpaceOnUse">
<stop stop-color="#B07318"/>
<stop offset="0.35" stop-color="#F5E47C"/>
<stop offset="0.65" stop-color="#C4931E"/>
<stop offset="1" stop-color="#F1D96B"/>
</linearGradient>
</defs>
</svg>
