<svg width="539" height="104" viewBox="0 0 539 104" fill="none" xmlns="http://www.w3.org/2000/svg">
<path d="M209.164 58.49C209.141 58.49 208.756 58.4667 208.009 58.42C207.286 58.3967 206.446 58.3033 205.489 58.14C204.696 58 203.972 57.9067 203.319 57.86C202.689 57.79 202.304 57.755 202.164 57.755C202.141 55.8183 202.036 53.4733 201.849 50.72C202.036 50.6967 202.222 50.685 202.409 50.685C202.619 50.685 202.806 50.685 202.969 50.685C203.412 52.7383 204.147 54.325 205.174 55.445C206.224 56.565 207.601 57.125 209.304 57.125C210.821 57.125 212.057 56.7167 213.014 55.9C213.971 55.06 214.449 53.9633 214.449 52.61C214.449 51.5833 214.181 50.7433 213.644 50.09C213.131 49.4367 212.442 48.8883 211.579 48.445C210.739 47.9783 209.841 47.5467 208.884 47.15C207.764 46.66 206.691 46.1467 205.664 45.61C204.661 45.05 203.832 44.3383 203.179 43.475C202.526 42.6117 202.199 41.4917 202.199 40.115C202.199 38.645 202.561 37.385 203.284 36.335C204.031 35.285 205.022 34.4917 206.259 33.955C207.496 33.395 208.861 33.115 210.354 33.115C210.821 33.115 211.299 33.1383 211.789 33.185C212.302 33.2317 212.827 33.3017 213.364 33.395C214.041 33.4883 214.554 33.5467 214.904 33.57C215.277 33.5933 215.522 33.605 215.639 33.605C215.709 33.605 215.837 33.605 216.024 33.605C216.211 33.5817 216.362 33.5583 216.479 33.535C216.526 34.5617 216.572 35.6233 216.619 36.72C216.666 37.8167 216.736 38.96 216.829 40.15C216.362 40.22 215.977 40.2433 215.674 40.22C215.137 38.19 214.472 36.7317 213.679 35.845C212.886 34.935 211.754 34.48 210.284 34.48C209.001 34.48 207.904 34.83 206.994 35.53C206.084 36.2067 205.629 37.2217 205.629 38.575C205.629 39.2983 205.792 39.94 206.119 40.5C206.469 41.06 207.041 41.5967 207.834 42.11C208.627 42.6233 209.724 43.1717 211.124 43.755C211.894 44.0817 212.664 44.4433 213.434 44.84C214.227 45.2367 214.951 45.715 215.604 46.275C216.257 46.8117 216.782 47.4767 217.179 48.27C217.576 49.04 217.774 49.9617 217.774 51.035C217.774 52.6217 217.377 53.975 216.584 55.095C215.791 56.1917 214.741 57.0317 213.434 57.615C212.151 58.1983 210.727 58.49 209.164 58.49ZM227.5 58.035C227.453 57.685 227.453 57.3117 227.5 56.915C228.596 56.7983 229.378 56.6933 229.845 56.6C230.311 56.4833 230.603 56.25 230.72 55.9C230.836 55.5267 230.895 54.9317 230.895 54.115V37.84C230.895 36.86 230.836 36.16 230.72 35.74C230.603 35.32 230.3 35.0517 229.81 34.935C229.343 34.795 228.573 34.6783 227.5 34.585C227.453 34.235 227.453 33.8617 227.5 33.465C228.106 33.465 228.631 33.4767 229.075 33.5C229.541 33.5 230.008 33.5 230.475 33.5C230.941 33.5 231.501 33.5117 232.155 33.535C232.808 33.535 233.636 33.535 234.64 33.535C236.483 33.535 238.21 33.535 239.82 33.535C241.43 33.5117 242.771 33.5 243.845 33.5C244.918 33.4767 245.548 33.465 245.735 33.465C245.828 34.3283 245.933 35.215 246.05 36.125C246.19 37.035 246.341 38.0033 246.505 39.03C246.108 39.0767 245.723 39.0767 245.35 39.03C245.07 38.33 244.743 37.7117 244.37 37.175C243.996 36.6383 243.611 36.23 243.215 35.95C242.771 35.6233 242.235 35.3783 241.605 35.215C240.998 35.0517 240.24 34.97 239.33 34.97H234.745V44.525H236.67C237.79 44.525 238.641 44.455 239.225 44.315C239.808 44.1517 240.24 43.8133 240.52 43.3C240.8 42.7633 241.021 41.9233 241.185 40.78C241.605 40.71 242.001 40.71 242.375 40.78C242.351 41.8067 242.328 42.6 242.305 43.16C242.305 43.6967 242.305 44.0933 242.305 44.35C242.305 44.6067 242.305 44.8167 242.305 44.98C242.305 45.12 242.305 45.2367 242.305 45.33L242.375 49.95C242.025 50.02 241.628 50.02 241.185 49.95C241.045 48.7133 240.835 47.8267 240.555 47.29C240.275 46.7533 239.855 46.415 239.295 46.275C238.758 46.135 237.988 46.065 236.985 46.065H234.745V53.66C234.745 54.4533 234.745 55.095 234.745 55.585C234.768 56.0517 234.791 56.355 234.815 56.495H239.61C240.776 56.495 241.71 56.4017 242.41 56.215C243.133 56.005 243.728 55.7017 244.195 55.305C244.521 55.0483 244.906 54.605 245.35 53.975C245.793 53.3217 246.213 52.575 246.61 51.735C246.983 51.6883 247.345 51.6883 247.695 51.735C247.461 53.0417 247.263 54.22 247.1 55.27C246.936 56.32 246.796 57.23 246.68 58C245.63 58 244.486 58 243.25 58C242.013 58 240.776 58 239.54 58C238.303 57.9767 237.171 57.965 236.145 57.965C235.141 57.965 234.336 57.965 233.73 57.965C232.633 57.965 231.735 57.9767 231.035 58C230.358 58 229.751 58 229.215 58C228.701 58.0233 228.13 58.035 227.5 58.035ZM265.042 46.94L264.132 46.835V53.66C264.132 54.3833 264.156 54.955 264.202 55.375C264.249 55.795 264.366 56.0983 264.552 56.285C264.762 56.4717 265.089 56.6117 265.532 56.705C265.999 56.775 266.641 56.845 267.457 56.915C267.527 57.2883 267.527 57.6617 267.457 58.035C266.991 58.035 266.431 58.0233 265.777 58C265.124 58 264.471 58 263.817 58C263.164 57.9767 262.616 57.965 262.172 57.965C261.752 57.965 261.204 57.9767 260.527 58C259.851 58 259.174 58 258.497 58C257.821 58.0233 257.249 58.035 256.782 58.035C256.712 57.685 256.712 57.3117 256.782 56.915C257.902 56.8217 258.707 56.7283 259.197 56.635C259.687 56.5183 259.991 56.285 260.107 55.935C260.224 55.5617 260.282 54.955 260.282 54.115V37.805C260.282 36.8483 260.212 36.16 260.072 35.74C259.956 35.32 259.652 35.04 259.162 34.9C258.672 34.76 257.879 34.655 256.782 34.585C256.712 34.235 256.712 33.8617 256.782 33.465C257.226 33.465 257.797 33.4767 258.497 33.5C259.221 33.5 259.921 33.5117 260.597 33.535C261.297 33.535 261.811 33.535 262.137 33.535C262.557 33.535 263.094 33.535 263.747 33.535C264.424 33.5117 265.089 33.4883 265.742 33.465C266.419 33.4417 266.944 33.43 267.317 33.43C268.787 33.43 270.152 33.6283 271.412 34.025C272.696 34.4217 273.722 35.075 274.492 35.985C275.286 36.8717 275.682 38.0733 275.682 39.59C275.682 41.0833 275.227 42.4133 274.317 43.58C273.431 44.7467 272.019 45.6217 270.082 46.205V46.31C270.432 46.59 270.829 47.0567 271.272 47.71L274.947 53.03C275.554 53.8933 276.056 54.57 276.452 55.06C276.872 55.55 277.269 55.9233 277.642 56.18C278.016 56.4133 278.447 56.5767 278.937 56.67C279.427 56.7633 280.046 56.845 280.792 56.915C280.862 57.2883 280.862 57.6617 280.792 58.035C280.349 58.035 279.801 58.0233 279.147 58C278.494 58 277.864 58 277.257 58C276.651 57.9767 276.161 57.965 275.787 57.965C275.414 57.965 275.087 57.9767 274.807 58C274.527 58 274.201 58 273.827 58L267.352 48.445C266.956 47.8383 266.606 47.4533 266.302 47.29C265.999 47.1033 265.579 46.9867 265.042 46.94ZM264.132 45.4C264.436 45.4467 264.704 45.4817 264.937 45.505C265.171 45.5283 265.392 45.54 265.602 45.54C267.422 45.54 268.857 45.0733 269.907 44.14C270.981 43.2067 271.517 41.83 271.517 40.01C271.517 38.3533 271.051 37.0817 270.117 36.195C269.207 35.3083 267.854 34.865 266.057 34.865C265.824 34.865 265.532 34.8767 265.182 34.9C264.856 34.9233 264.506 34.9583 264.132 35.005V45.4ZM295.253 58.245L287.693 38.295C287.39 37.455 287.121 36.8017 286.888 36.335C286.678 35.8683 286.445 35.5183 286.188 35.285C285.931 35.0517 285.593 34.9 285.173 34.83C284.776 34.7367 284.24 34.655 283.563 34.585C283.493 34.2117 283.493 33.8383 283.563 33.465C284.38 33.465 285.231 33.4767 286.118 33.5C287.028 33.5233 287.903 33.535 288.743 33.535C289.256 33.535 289.84 33.535 290.493 33.535C291.17 33.5117 291.835 33.5 292.488 33.5C293.165 33.4767 293.76 33.465 294.273 33.465C294.343 33.815 294.343 34.1883 294.273 34.585C293.036 34.6783 292.173 34.795 291.683 34.935C291.193 35.075 290.948 35.355 290.948 35.775C290.948 35.9383 290.983 36.1483 291.053 36.405C291.146 36.6383 291.251 36.9183 291.368 37.245L297.353 53.275L303.198 37.875C303.361 37.4317 303.49 37.0583 303.583 36.755C303.676 36.4283 303.723 36.16 303.723 35.95C303.723 35.4833 303.478 35.1683 302.988 35.005C302.521 34.8183 301.635 34.6783 300.328 34.585C300.258 34.1883 300.258 33.815 300.328 33.465C300.678 33.465 301.191 33.4767 301.868 33.5C302.545 33.5 303.221 33.5117 303.898 33.535C304.575 33.535 305.088 33.535 305.438 33.535C306.185 33.535 306.85 33.5233 307.433 33.5C308.04 33.4767 308.705 33.465 309.428 33.465C309.498 33.8383 309.498 34.2117 309.428 34.585C308.751 34.655 308.191 34.725 307.748 34.795C307.328 34.865 306.966 35.0167 306.663 35.25C306.36 35.4833 306.068 35.8567 305.788 36.37C305.531 36.86 305.228 37.56 304.878 38.47L297.143 57.965C296.863 58.0583 296.536 58.1283 296.163 58.175C295.813 58.2217 295.51 58.245 295.253 58.245ZM323.489 37.385V53.66C323.489 54.3833 323.512 54.955 323.559 55.375C323.606 55.795 323.734 56.0983 323.944 56.285C324.154 56.4717 324.492 56.6117 324.959 56.705C325.426 56.775 326.091 56.845 326.954 56.915C327.024 57.2883 327.024 57.6617 326.954 58.035C326.487 58.035 325.916 58.0233 325.239 58C324.562 58 323.886 58 323.209 58C322.556 57.9767 322.007 57.965 321.564 57.965C321.121 57.965 320.561 57.9767 319.884 58C319.231 58 318.566 58 317.889 58C317.236 58.0233 316.652 58.035 316.139 58.035C316.069 57.685 316.069 57.3117 316.139 56.915C317.259 56.7983 318.064 56.6933 318.554 56.6C319.044 56.4833 319.347 56.25 319.464 55.9C319.581 55.55 319.639 54.955 319.639 54.115V37.84C319.639 36.86 319.581 36.16 319.464 35.74C319.347 35.32 319.044 35.0517 318.554 34.935C318.064 34.795 317.259 34.6783 316.139 34.585C316.092 34.235 316.092 33.8617 316.139 33.465C316.629 33.465 317.212 33.4767 317.889 33.5C318.589 33.5 319.277 33.5117 319.954 33.535C320.631 33.535 321.191 33.535 321.634 33.535C322.077 33.535 322.626 33.535 323.279 33.535C323.932 33.5117 324.597 33.5 325.274 33.5C325.951 33.4767 326.511 33.465 326.954 33.465C327.024 33.815 327.024 34.1883 326.954 34.585C325.857 34.6783 325.064 34.7833 324.574 34.9C324.084 35.0167 323.781 35.25 323.664 35.6C323.547 35.95 323.489 36.545 323.489 37.385ZM358.353 50.755C358.073 52.8083 357.863 54.8967 357.723 57.02C356.44 57.3933 355.133 57.7317 353.803 58.035C352.473 58.3383 351.05 58.49 349.533 58.49C346.943 58.49 344.691 57.9767 342.778 56.95C340.888 55.9233 339.418 54.4883 338.368 52.645C337.318 50.7783 336.793 48.585 336.793 46.065C336.793 43.5217 337.318 41.2817 338.368 39.345C339.418 37.385 340.9 35.8567 342.813 34.76C344.726 33.6633 346.978 33.115 349.568 33.115C350.525 33.115 351.365 33.1733 352.088 33.29C352.811 33.4067 353.686 33.5817 354.713 33.815C355.18 33.9083 355.588 34.0017 355.938 34.095C356.288 34.1883 356.65 34.235 357.023 34.235C357.14 34.235 357.268 34.235 357.408 34.235C357.548 34.2117 357.665 34.1883 357.758 34.165C357.805 35.1917 357.851 36.2533 357.898 37.35C357.945 38.4467 358.015 39.59 358.108 40.78C357.641 40.85 357.245 40.8733 356.918 40.85C356.008 36.6267 353.616 34.515 349.743 34.515C348.18 34.515 346.85 34.83 345.753 35.46C344.656 36.0667 343.77 36.9067 343.093 37.98C342.416 39.03 341.926 40.22 341.623 41.55C341.32 42.88 341.168 44.2683 341.168 45.715C341.168 47.7683 341.471 49.6583 342.078 51.385C342.685 53.1117 343.641 54.4883 344.948 55.515C346.255 56.5417 347.935 57.055 349.988 57.055C351.925 57.055 353.465 56.5417 354.608 55.515C355.775 54.4883 356.615 52.89 357.128 50.72C357.315 50.72 357.501 50.72 357.688 50.72C357.898 50.72 358.12 50.7317 358.353 50.755ZM368.423 58.035C368.376 57.685 368.376 57.3117 368.423 56.915C369.519 56.7983 370.301 56.6933 370.768 56.6C371.234 56.4833 371.526 56.25 371.643 55.9C371.759 55.5267 371.818 54.9317 371.818 54.115V37.84C371.818 36.86 371.759 36.16 371.643 35.74C371.526 35.32 371.223 35.0517 370.733 34.935C370.266 34.795 369.496 34.6783 368.423 34.585C368.376 34.235 368.376 33.8617 368.423 33.465C369.029 33.465 369.554 33.4767 369.998 33.5C370.464 33.5 370.931 33.5 371.398 33.5C371.864 33.5 372.424 33.5117 373.078 33.535C373.731 33.535 374.559 33.535 375.563 33.535C377.406 33.535 379.133 33.535 380.743 33.535C382.353 33.5117 383.694 33.5 384.768 33.5C385.841 33.4767 386.471 33.465 386.658 33.465C386.751 34.3283 386.856 35.215 386.973 36.125C387.113 37.035 387.264 38.0033 387.428 39.03C387.031 39.0767 386.646 39.0767 386.273 39.03C385.993 38.33 385.666 37.7117 385.293 37.175C384.919 36.6383 384.534 36.23 384.138 35.95C383.694 35.6233 383.158 35.3783 382.528 35.215C381.921 35.0517 381.163 34.97 380.253 34.97H375.668V44.525H377.593C378.713 44.525 379.564 44.455 380.148 44.315C380.731 44.1517 381.163 43.8133 381.443 43.3C381.723 42.7633 381.944 41.9233 382.108 40.78C382.528 40.71 382.924 40.71 383.298 40.78C383.274 41.8067 383.251 42.6 383.228 43.16C383.228 43.6967 383.228 44.0933 383.228 44.35C383.228 44.6067 383.228 44.8167 383.228 44.98C383.228 45.12 383.228 45.2367 383.228 45.33L383.298 49.95C382.948 50.02 382.551 50.02 382.108 49.95C381.968 48.7133 381.758 47.8267 381.478 47.29C381.198 46.7533 380.778 46.415 380.218 46.275C379.681 46.135 378.911 46.065 377.908 46.065H375.668V53.66C375.668 54.4533 375.668 55.095 375.668 55.585C375.691 56.0517 375.714 56.355 375.738 56.495H380.533C381.699 56.495 382.633 56.4017 383.333 56.215C384.056 56.005 384.651 55.7017 385.118 55.305C385.444 55.0483 385.829 54.605 386.273 53.975C386.716 53.3217 387.136 52.575 387.533 51.735C387.906 51.6883 388.268 51.6883 388.618 51.735C388.384 53.0417 388.186 54.22 388.023 55.27C387.859 56.32 387.719 57.23 387.603 58C386.553 58 385.409 58 384.173 58C382.936 58 381.699 58 380.463 58C379.226 57.9767 378.094 57.965 377.068 57.965C376.064 57.965 375.259 57.965 374.653 57.965C373.556 57.965 372.658 57.9767 371.958 58C371.281 58 370.674 58 370.138 58C369.624 58.0233 369.053 58.035 368.423 58.035ZM405.615 58.49C405.592 58.49 405.207 58.4667 404.46 58.42C403.737 58.3967 402.897 58.3033 401.94 58.14C401.147 58 400.424 57.9067 399.77 57.86C399.14 57.79 398.755 57.755 398.615 57.755C398.592 55.8183 398.487 53.4733 398.3 50.72C398.487 50.6967 398.674 50.685 398.86 50.685C399.07 50.685 399.257 50.685 399.42 50.685C399.864 52.7383 400.599 54.325 401.625 55.445C402.675 56.565 404.052 57.125 405.755 57.125C407.272 57.125 408.509 56.7167 409.465 55.9C410.422 55.06 410.9 53.9633 410.9 52.61C410.9 51.5833 410.632 50.7433 410.095 50.09C409.582 49.4367 408.894 48.8883 408.03 48.445C407.19 47.9783 406.292 47.5467 405.335 47.15C404.215 46.66 403.142 46.1467 402.115 45.61C401.112 45.05 400.284 44.3383 399.63 43.475C398.977 42.6117 398.65 41.4917 398.65 40.115C398.65 38.645 399.012 37.385 399.735 36.335C400.482 35.285 401.474 34.4917 402.71 33.955C403.947 33.395 405.312 33.115 406.805 33.115C407.272 33.115 407.75 33.1383 408.24 33.185C408.754 33.2317 409.279 33.3017 409.815 33.395C410.492 33.4883 411.005 33.5467 411.355 33.57C411.729 33.5933 411.974 33.605 412.09 33.605C412.16 33.605 412.289 33.605 412.475 33.605C412.662 33.5817 412.814 33.5583 412.93 33.535C412.977 34.5617 413.024 35.6233 413.07 36.72C413.117 37.8167 413.187 38.96 413.28 40.15C412.814 40.22 412.429 40.2433 412.125 40.22C411.589 38.19 410.924 36.7317 410.13 35.845C409.337 34.935 408.205 34.48 406.735 34.48C405.452 34.48 404.355 34.83 403.445 35.53C402.535 36.2067 402.08 37.2217 402.08 38.575C402.08 39.2983 402.244 39.94 402.57 40.5C402.92 41.06 403.492 41.5967 404.285 42.11C405.079 42.6233 406.175 43.1717 407.575 43.755C408.345 44.0817 409.115 44.4433 409.885 44.84C410.679 45.2367 411.402 45.715 412.055 46.275C412.709 46.8117 413.234 47.4767 413.63 48.27C414.027 49.04 414.225 49.9617 414.225 51.035C414.225 52.6217 413.829 53.975 413.035 55.095C412.242 56.1917 411.192 57.0317 409.885 57.615C408.602 58.1983 407.179 58.49 405.615 58.49Z" fill="url(#paint0_linear_229_649)"/>
<path d="M137.257 58.7C137.224 58.7 136.674 58.6667 135.607 58.6C134.574 58.5667 133.374 58.4333 132.007 58.2C130.874 58 129.84 57.8667 128.907 57.8C128.007 57.7 127.457 57.65 127.257 57.65C127.224 54.8833 127.074 51.5333 126.807 47.6C127.074 47.5667 127.34 47.55 127.607 47.55C127.907 47.55 128.174 47.55 128.407 47.55C129.04 50.4833 130.09 52.75 131.557 54.35C133.057 55.95 135.024 56.75 137.457 56.75C139.624 56.75 141.39 56.1667 142.757 55C144.124 53.8 144.807 52.2333 144.807 50.3C144.807 48.8333 144.424 47.6333 143.657 46.7C142.924 45.7667 141.94 44.9833 140.707 44.35C139.507 43.6833 138.224 43.0667 136.857 42.5C135.257 41.8 133.724 41.0667 132.257 40.3C130.824 39.5 129.64 38.4833 128.707 37.25C127.774 36.0167 127.307 34.4167 127.307 32.45C127.307 30.35 127.824 28.55 128.857 27.05C129.924 25.55 131.34 24.4167 133.107 23.65C134.874 22.85 136.824 22.45 138.957 22.45C139.624 22.45 140.307 22.4833 141.007 22.55C141.74 22.6167 142.49 22.7167 143.257 22.85C144.224 22.9833 144.957 23.0667 145.457 23.1C145.99 23.1333 146.34 23.15 146.507 23.15C146.607 23.15 146.79 23.15 147.057 23.15C147.324 23.1167 147.54 23.0833 147.707 23.05C147.774 24.5167 147.84 26.0333 147.907 27.6C147.974 29.1667 148.074 30.8 148.207 32.5C147.54 32.6 146.99 32.6333 146.557 32.6C145.79 29.7 144.84 27.6167 143.707 26.35C142.574 25.05 140.957 24.4 138.857 24.4C137.024 24.4 135.457 24.9 134.157 25.9C132.857 26.8667 132.207 28.3167 132.207 30.25C132.207 31.2833 132.44 32.2 132.907 33C133.407 33.8 134.224 34.5667 135.357 35.3C136.49 36.0333 138.057 36.8167 140.057 37.65C141.157 38.1167 142.257 38.6333 143.357 39.2C144.49 39.7667 145.524 40.45 146.457 41.25C147.39 42.0167 148.14 42.9667 148.707 44.1C149.274 45.2 149.557 46.5167 149.557 48.05C149.557 50.3167 148.99 52.25 147.857 53.85C146.724 55.4167 145.224 56.6167 143.357 57.45C141.524 58.2833 139.49 58.7 137.257 58.7ZM155.301 58.05C155.234 57.55 155.234 57.0167 155.301 56.45C156.901 56.2833 158.051 56.1333 158.751 56C159.451 55.8333 159.884 55.5 160.051 55C160.217 54.5 160.301 53.65 160.301 52.45V29.2C160.301 27.8 160.217 26.8 160.051 26.2C159.884 25.6 159.451 25.2167 158.751 25.05C158.051 24.85 156.901 24.6833 155.301 24.55C155.234 24.05 155.234 23.5167 155.301 22.95C155.967 22.95 156.784 22.9667 157.751 23C158.751 23 159.734 23.0167 160.701 23.05C161.667 23.05 162.451 23.05 163.051 23.05C163.684 23.05 164.451 23.05 165.351 23.05C166.284 23.0167 167.217 23 168.151 23C169.117 22.9667 169.934 22.95 170.601 22.95C170.701 23.45 170.701 23.9833 170.601 24.55C169.067 24.6833 167.967 24.8333 167.301 25C166.634 25.1667 166.217 25.5 166.051 26C165.884 26.5 165.801 27.35 165.801 28.55V40.9L177.301 28.7C178.567 27.3333 179.201 26.4 179.201 25.9C179.201 25.4667 178.901 25.1667 178.301 25C177.701 24.8 176.717 24.65 175.351 24.55C175.284 23.9833 175.284 23.45 175.351 22.95C175.917 22.95 176.634 22.9667 177.501 23C178.367 23 179.234 23.0167 180.101 23.05C180.967 23.05 181.667 23.05 182.201 23.05C183.267 23.05 184.267 23.0333 185.201 23C186.167 22.9667 187.217 22.95 188.351 22.95C188.417 23.4833 188.417 24.0167 188.351 24.55C187.317 24.65 186.451 24.7833 185.751 24.95C185.084 25.1167 184.434 25.4 183.801 25.8C183.201 26.2 182.517 26.7667 181.751 27.5C180.984 28.2333 180.017 29.2 178.851 30.4L171.501 38L181.801 51.55C182.601 52.5833 183.267 53.4167 183.801 54.05C184.334 54.65 184.851 55.1167 185.351 55.45C185.884 55.75 186.484 55.9667 187.151 56.1C187.851 56.2333 188.734 56.35 189.801 56.45C189.901 56.9833 189.901 57.5167 189.801 58.05C189.167 58.05 188.417 58.0333 187.551 58C186.684 58 185.834 58 185.001 58C184.167 57.9667 183.451 57.95 182.851 57.95C182.484 57.95 182.001 57.9667 181.401 58C180.834 58 180.317 58 179.851 58L167.851 41.85L165.801 44.1V51.8C165.801 53.2 165.884 54.2167 166.051 54.85C166.217 55.45 166.634 55.8333 167.301 56C168.001 56.1667 169.101 56.3167 170.601 56.45C170.701 56.9833 170.701 57.5167 170.601 58.05C169.934 58.05 169.117 58.0333 168.151 58C167.217 58 166.267 58 165.301 58C164.367 57.9667 163.584 57.95 162.951 57.95C162.317 57.95 161.534 57.9667 160.601 58C159.667 58 158.717 58 157.751 58C156.817 58.0333 156.001 58.05 155.301 58.05Z" fill="url(#paint1_linear_229_649)"/>
<path d="M135.874 75.48L133.375 79.934V82.892C133.375 83.2433 133.386 83.521 133.409 83.725C133.432 83.929 133.494 84.0763 133.596 84.167C133.698 84.2577 133.862 84.3257 134.089 84.371C134.316 84.405 134.639 84.439 135.058 84.473C135.092 84.6543 135.092 84.8357 135.058 85.017C134.82 85.017 134.537 85.0113 134.208 85C133.879 85 133.551 85 133.222 85C132.905 84.9887 132.638 84.983 132.423 84.983C132.208 84.983 131.941 84.9887 131.624 85C131.307 85 130.984 85 130.655 85C130.326 85.0113 130.043 85.017 129.805 85.017C129.782 84.847 129.782 84.6657 129.805 84.473C130.349 84.4163 130.74 84.3653 130.978 84.32C131.216 84.2633 131.363 84.15 131.42 83.98C131.477 83.7987 131.505 83.5097 131.505 83.113V80.104L128.921 75.378C128.717 74.9927 128.547 74.6923 128.411 74.477C128.275 74.2503 128.139 74.086 128.003 73.984C127.878 73.8707 127.72 73.7913 127.527 73.746C127.346 73.7007 127.091 73.661 126.762 73.627C126.739 73.4457 126.739 73.2643 126.762 73.083C127.17 73.083 127.589 73.0887 128.02 73.1C128.451 73.1113 128.876 73.117 129.295 73.117C129.658 73.117 130.06 73.1113 130.502 73.1C130.944 73.0887 131.369 73.083 131.777 73.083C131.8 73.253 131.8 73.4343 131.777 73.627C131.29 73.6723 130.944 73.729 130.74 73.797C130.536 73.8537 130.434 73.9613 130.434 74.12C130.434 74.1993 130.462 74.307 130.519 74.443C130.587 74.5677 130.672 74.7263 130.774 74.919L133.001 79.084L135.245 74.936C135.449 74.562 135.551 74.307 135.551 74.171C135.551 74.001 135.432 73.8877 135.194 73.831C134.967 73.763 134.571 73.695 134.004 73.627C133.981 73.4343 133.981 73.253 134.004 73.083C134.185 73.083 134.418 73.0887 134.701 73.1C134.984 73.1 135.262 73.1057 135.534 73.117C135.817 73.117 136.05 73.117 136.231 73.117C136.594 73.117 136.928 73.1113 137.234 73.1C137.551 73.0887 137.886 73.083 138.237 73.083C138.26 73.2643 138.26 73.4457 138.237 73.627C137.908 73.661 137.642 73.7007 137.438 73.746C137.234 73.7913 137.058 73.8763 136.911 74.001C136.764 74.1143 136.611 74.29 136.452 74.528C136.293 74.7547 136.101 75.072 135.874 75.48ZM141.973 85.204C141.146 85.204 140.42 85.0283 139.797 84.677C139.185 84.3143 138.709 83.8213 138.369 83.198C138.029 82.5633 137.859 81.838 137.859 81.022C137.859 80.138 138.035 79.3673 138.386 78.71C138.749 78.0527 139.253 77.5427 139.899 77.18C140.545 76.8173 141.287 76.636 142.126 76.636C142.953 76.636 143.673 76.8173 144.285 77.18C144.897 77.5427 145.373 78.0413 145.713 78.676C146.053 79.3107 146.223 80.0303 146.223 80.835C146.223 81.6623 146.042 82.4103 145.679 83.079C145.328 83.7363 144.835 84.2577 144.2 84.643C143.565 85.017 142.823 85.204 141.973 85.204ZM139.78 80.818C139.78 81.974 139.967 82.892 140.341 83.572C140.726 84.2407 141.299 84.575 142.058 84.575C142.783 84.575 143.339 84.2577 143.724 83.623C144.109 82.977 144.302 82.1157 144.302 81.039C144.302 79.8943 144.109 78.982 143.724 78.302C143.339 77.622 142.778 77.282 142.041 77.282C141.316 77.282 140.755 77.5937 140.358 78.217C139.973 78.8403 139.78 79.7073 139.78 80.818ZM152.11 85.204C151.373 85.204 150.801 84.9887 150.393 84.558C149.996 84.116 149.798 83.4813 149.798 82.654V79.22C149.798 78.778 149.775 78.4493 149.73 78.234C149.696 78.0187 149.588 77.8657 149.407 77.775C149.237 77.6843 148.942 77.6107 148.523 77.554C148.466 77.4067 148.466 77.265 148.523 77.129C149.01 77.061 149.475 76.9873 149.917 76.908C150.37 76.8287 150.823 76.7323 151.277 76.619L151.532 76.738C151.52 77.0893 151.509 77.4237 151.498 77.741C151.498 78.047 151.498 78.336 151.498 78.608V82.042C151.498 82.722 151.6 83.232 151.804 83.572C152.019 83.9007 152.433 84.065 153.045 84.065C153.385 84.065 153.702 83.9913 153.997 83.844C154.303 83.6853 154.592 83.4587 154.864 83.164V79.22C154.864 78.778 154.841 78.4493 154.796 78.234C154.762 78.0187 154.654 77.8657 154.473 77.775C154.303 77.6843 154.008 77.6107 153.589 77.554C153.555 77.4067 153.555 77.265 153.589 77.129C154.076 77.061 154.541 76.9873 154.983 76.908C155.436 76.8287 155.895 76.7323 156.36 76.619L156.615 76.738C156.603 77.0893 156.592 77.4237 156.581 77.741C156.581 78.047 156.581 78.336 156.581 78.608V83.011C156.581 83.351 156.598 83.606 156.632 83.776C156.677 83.946 156.79 84.0707 156.972 84.15C157.164 84.218 157.476 84.2747 157.907 84.32C157.918 84.456 157.918 84.5977 157.907 84.745C157.419 84.7903 156.955 84.847 156.513 84.915C156.071 84.983 155.64 85.068 155.221 85.17L154.949 85.051L154.915 83.861C153.974 84.7563 153.039 85.204 152.11 85.204ZM159.998 85.017C159.964 84.8357 159.964 84.66 159.998 84.49C160.383 84.4673 160.667 84.4333 160.848 84.388C161.029 84.3313 161.148 84.218 161.205 84.048C161.262 83.878 161.29 83.606 161.29 83.232V79.424C161.29 78.982 161.267 78.6533 161.222 78.438C161.188 78.2227 161.08 78.0753 160.899 77.996C160.729 77.9053 160.434 77.8317 160.015 77.775C159.981 77.6163 159.981 77.469 160.015 77.333C160.468 77.2423 160.91 77.1403 161.341 77.027C161.772 76.9023 162.225 76.7437 162.701 76.551L162.99 76.653V78.149C163.783 77.1403 164.594 76.636 165.421 76.636C165.818 76.636 166.112 76.7437 166.305 76.959C166.498 77.163 166.594 77.3953 166.594 77.656C166.594 77.962 166.492 78.2 166.288 78.37C166.084 78.5287 165.852 78.608 165.591 78.608C165.376 78.608 165.16 78.5513 164.945 78.438C164.741 78.3247 164.588 78.149 164.486 77.911C164.101 77.911 163.755 78.064 163.449 78.37C163.154 78.6647 163.007 79.0103 163.007 79.407V83.062C163.007 83.504 163.03 83.8213 163.075 84.014C163.132 84.2067 163.268 84.3313 163.483 84.388C163.71 84.4333 164.072 84.4673 164.571 84.49C164.594 84.6487 164.594 84.8243 164.571 85.017C164.186 85.017 163.789 85.0113 163.381 85C162.973 84.9887 162.554 84.983 162.123 84.983C161.704 84.983 161.33 84.9887 161.001 85C160.684 85.0113 160.349 85.017 159.998 85.017ZM178.577 79.73C178.373 79.73 178.146 79.7187 177.897 79.696C177.648 79.6733 177.364 79.628 177.047 79.56V82.892C177.047 83.2433 177.058 83.521 177.081 83.725C177.104 83.9177 177.172 84.065 177.285 84.167C177.41 84.269 177.58 84.337 177.795 84.371C178.022 84.405 178.379 84.439 178.866 84.473C178.889 84.6543 178.889 84.8357 178.866 85.017C178.617 85.017 178.316 85.0113 177.965 85C177.625 85 177.285 85 176.945 85C176.616 84.9887 176.339 84.983 176.112 84.983C175.897 84.983 175.625 84.9887 175.296 85C174.979 85 174.656 85 174.327 85C174.01 85.0113 173.726 85.017 173.477 85.017C173.454 84.847 173.454 84.6657 173.477 84.473C174.021 84.4163 174.412 84.3653 174.65 84.32C174.888 84.2633 175.035 84.15 175.092 83.98C175.149 83.81 175.177 83.521 175.177 83.113V75.208C175.177 74.732 175.149 74.392 175.092 74.188C175.035 73.984 174.888 73.8537 174.65 73.797C174.412 73.729 174.021 73.6723 173.477 73.627C173.454 73.457 173.454 73.2757 173.477 73.083C173.704 73.083 173.987 73.0887 174.327 73.1C174.678 73.1 175.018 73.1057 175.347 73.117C175.676 73.117 175.914 73.117 176.061 73.117C176.276 73.117 176.543 73.117 176.86 73.117C177.189 73.1057 177.512 73.0943 177.829 73.083C178.146 73.0717 178.396 73.066 178.577 73.066C179.291 73.066 179.954 73.168 180.566 73.372C181.178 73.5647 181.671 73.8877 182.045 74.341C182.419 74.7943 182.606 75.4177 182.606 76.211C182.606 76.9703 182.43 77.6107 182.079 78.132C181.728 78.6533 181.246 79.05 180.634 79.322C180.033 79.594 179.348 79.73 178.577 79.73ZM177.047 78.88C177.194 78.914 177.359 78.948 177.54 78.982C177.721 79.016 177.914 79.033 178.118 79.033C178.866 79.033 179.455 78.7837 179.886 78.285C180.317 77.775 180.532 77.112 180.532 76.296C180.532 75.5027 180.317 74.8793 179.886 74.426C179.455 73.9727 178.809 73.746 177.948 73.746C177.835 73.746 177.693 73.7517 177.523 73.763C177.364 73.7743 177.206 73.7913 177.047 73.814V78.88ZM190.384 85.17C189.636 85.17 189.165 84.796 188.973 84.048C188.168 84.8187 187.346 85.204 186.508 85.204C185.93 85.204 185.437 85.034 185.029 84.694C184.632 84.3427 184.434 83.861 184.434 83.249C184.434 81.753 185.958 80.8123 189.007 80.427C189.007 80.155 189.007 79.8773 189.007 79.594C189.018 79.3107 189.024 79.0103 189.024 78.693C189.024 78.2963 188.876 77.9903 188.582 77.775C188.298 77.5483 187.953 77.435 187.545 77.435C187.25 77.435 187.001 77.4803 186.797 77.571C186.797 77.8317 186.74 78.098 186.627 78.37C186.513 78.642 186.355 78.8743 186.151 79.067C185.958 79.2483 185.72 79.339 185.437 79.339C185.187 79.339 184.989 79.271 184.842 79.135C184.706 78.9877 184.638 78.812 184.638 78.608C184.638 78.336 184.762 78.081 185.012 77.843C185.272 77.5937 185.601 77.384 185.998 77.214C186.394 77.0327 186.808 76.891 187.239 76.789C187.669 76.687 188.055 76.636 188.395 76.636C188.814 76.636 189.199 76.7153 189.551 76.874C189.913 77.0213 190.202 77.248 190.418 77.554C190.644 77.8487 190.758 78.217 190.758 78.659C190.758 78.931 190.752 79.288 190.741 79.73C190.729 80.1607 190.718 80.6253 190.707 81.124C190.707 81.6113 190.701 82.076 190.69 82.518C190.678 82.96 190.673 83.317 190.673 83.589C190.673 83.9517 190.831 84.133 191.149 84.133C191.353 84.133 191.664 84.065 192.084 83.929C192.129 83.9857 192.157 84.048 192.169 84.116C192.191 84.184 192.208 84.2463 192.22 84.303C191.936 84.609 191.636 84.83 191.319 84.966C191.013 85.102 190.701 85.17 190.384 85.17ZM188.973 83.589L189.007 81.039C187.964 81.175 187.244 81.396 186.848 81.702C186.462 82.008 186.27 82.399 186.27 82.875C186.27 83.2717 186.372 83.5777 186.576 83.793C186.791 83.997 187.057 84.099 187.375 84.099C187.579 84.099 187.805 84.0537 188.055 83.963C188.315 83.8723 188.621 83.7477 188.973 83.589ZM194.076 85.017C194.042 84.8357 194.042 84.66 194.076 84.49C194.461 84.4673 194.744 84.4333 194.926 84.388C195.107 84.3313 195.226 84.218 195.283 84.048C195.339 83.878 195.368 83.606 195.368 83.232V79.424C195.368 78.982 195.345 78.6533 195.3 78.438C195.266 78.2227 195.158 78.0753 194.977 77.996C194.807 77.9053 194.512 77.8317 194.093 77.775C194.059 77.6163 194.059 77.469 194.093 77.333C194.546 77.2423 194.988 77.1403 195.419 77.027C195.849 76.9023 196.303 76.7437 196.779 76.551L197.068 76.653V78.149C197.861 77.1403 198.671 76.636 199.499 76.636C199.895 76.636 200.19 76.7437 200.383 76.959C200.575 77.163 200.672 77.3953 200.672 77.656C200.672 77.962 200.57 78.2 200.366 78.37C200.162 78.5287 199.929 78.608 199.669 78.608C199.453 78.608 199.238 78.5513 199.023 78.438C198.819 78.3247 198.666 78.149 198.564 77.911C198.178 77.911 197.833 78.064 197.527 78.37C197.232 78.6647 197.085 79.0103 197.085 79.407V83.062C197.085 83.504 197.107 83.8213 197.153 84.014C197.209 84.2067 197.345 84.3313 197.561 84.388C197.787 84.4333 198.15 84.4673 198.649 84.49C198.671 84.6487 198.671 84.8243 198.649 85.017C198.263 85.017 197.867 85.0113 197.459 85C197.051 84.9887 196.631 84.983 196.201 84.983C195.781 84.983 195.407 84.9887 195.079 85C194.761 85.0113 194.427 85.017 194.076 85.017ZM205.672 85.204C204.992 85.204 204.454 85.0453 204.057 84.728C203.661 84.3993 203.462 83.929 203.462 83.317C203.462 82.3197 203.468 81.3563 203.479 80.427C203.502 79.4977 203.519 78.6023 203.53 77.741H202.238C202.204 77.571 202.204 77.418 202.238 77.282C203.36 76.806 204.205 76.0297 204.771 74.953C204.862 74.953 204.953 74.9587 205.043 74.97C205.134 74.97 205.213 74.9757 205.281 74.987C205.27 75.2817 205.259 75.5933 205.247 75.922C205.247 76.2507 205.242 76.5963 205.23 76.959H207.814C207.848 77.2083 207.848 77.469 207.814 77.741H205.23C205.208 78.5343 205.191 79.373 205.179 80.257C205.179 81.1297 205.179 82.008 205.179 82.892C205.179 83.81 205.655 84.269 206.607 84.269C207.015 84.269 207.395 84.1613 207.746 83.946C207.848 84.082 207.911 84.252 207.933 84.456C207.265 84.9547 206.511 85.204 205.672 85.204ZM215.248 85.017C215.226 84.8357 215.226 84.66 215.248 84.49C215.6 84.4673 215.86 84.4333 216.03 84.388C216.2 84.3313 216.314 84.218 216.37 84.048C216.427 83.878 216.455 83.606 216.455 83.232V79.798C216.455 79.118 216.348 78.6137 216.132 78.285C215.928 77.945 215.515 77.775 214.891 77.775C214.563 77.775 214.245 77.8373 213.939 77.962C213.633 78.0753 213.299 78.2963 212.936 78.625V83.062C212.936 83.504 212.959 83.8213 213.004 84.014C213.061 84.2067 213.174 84.3313 213.344 84.388C213.514 84.4333 213.781 84.4673 214.143 84.49C214.166 84.66 214.166 84.8357 214.143 85.017C213.826 85.017 213.492 85.0113 213.14 85C212.8 84.9887 212.432 84.983 212.035 84.983C211.673 84.983 211.316 84.9887 210.964 85C210.613 85.0113 210.267 85.017 209.927 85.017C209.893 84.8357 209.893 84.66 209.927 84.49C210.313 84.4673 210.596 84.4333 210.777 84.388C210.959 84.3313 211.078 84.218 211.134 84.048C211.191 83.878 211.219 83.606 211.219 83.232V79.424C211.219 78.982 211.197 78.6533 211.151 78.438C211.117 78.2227 211.01 78.0753 210.828 77.996C210.658 77.9053 210.364 77.8317 209.944 77.775C209.91 77.6163 209.91 77.469 209.944 77.333C210.919 77.1403 211.814 76.8797 212.63 76.551L212.919 76.653V77.928C213.441 77.452 213.951 77.1177 214.449 76.925C214.948 76.7323 215.424 76.636 215.877 76.636C216.625 76.636 217.198 76.857 217.594 77.299C217.991 77.741 218.189 78.3757 218.189 79.203V83.062C218.189 83.504 218.212 83.8213 218.257 84.014C218.314 84.2067 218.427 84.3313 218.597 84.388C218.767 84.4333 219.039 84.4673 219.413 84.49C219.436 84.66 219.436 84.8357 219.413 85.017C219.073 85.017 218.739 85.0113 218.41 85C218.093 84.9887 217.719 84.983 217.288 84.983C216.869 84.983 216.501 84.9887 216.183 85C215.877 85.0113 215.566 85.017 215.248 85.017ZM225.475 85.204C224.67 85.204 223.99 85.017 223.435 84.643C222.879 84.269 222.454 83.7703 222.16 83.147C221.876 82.5123 221.735 81.8153 221.735 81.056C221.735 80.274 221.882 79.5487 222.177 78.88C222.483 78.2113 222.925 77.673 223.503 77.265C224.081 76.8457 224.783 76.636 225.611 76.636C226.608 76.636 227.384 76.9363 227.94 77.537C228.506 78.1263 228.79 78.8913 228.79 79.832C228.79 79.9453 228.784 80.0473 228.773 80.138C228.773 80.2173 228.767 80.2853 228.756 80.342L223.401 80.291C223.401 80.3363 223.401 80.376 223.401 80.41C223.401 81.5207 223.656 82.3933 224.166 83.028C224.676 83.6627 225.39 83.98 226.308 83.98C227.078 83.98 227.838 83.7307 228.586 83.232C228.699 83.368 228.784 83.4983 228.841 83.623C227.877 84.677 226.755 85.204 225.475 85.204ZM223.452 79.662L226.971 79.594C226.982 79.5713 226.988 79.543 226.988 79.509C226.988 79.4637 226.988 79.4353 226.988 79.424C226.988 78.812 226.852 78.302 226.58 77.894C226.319 77.486 225.928 77.282 225.407 77.282C224.919 77.282 224.494 77.4803 224.132 77.877C223.769 78.2737 223.542 78.8687 223.452 79.662ZM231.341 85.017C231.307 84.8357 231.307 84.66 231.341 84.49C231.726 84.4673 232.009 84.4333 232.191 84.388C232.372 84.3313 232.491 84.218 232.548 84.048C232.604 83.878 232.633 83.606 232.633 83.232V79.424C232.633 78.982 232.61 78.6533 232.565 78.438C232.531 78.2227 232.423 78.0753 232.242 77.996C232.072 77.9053 231.777 77.8317 231.358 77.775C231.324 77.6163 231.324 77.469 231.358 77.333C231.811 77.2423 232.253 77.1403 232.684 77.027C233.114 76.9023 233.568 76.7437 234.044 76.551L234.333 76.653V78.149C235.126 77.1403 235.936 76.636 236.764 76.636C237.16 76.636 237.455 76.7437 237.648 76.959C237.84 77.163 237.937 77.3953 237.937 77.656C237.937 77.962 237.835 78.2 237.631 78.37C237.427 78.5287 237.194 78.608 236.934 78.608C236.718 78.608 236.503 78.5513 236.288 78.438C236.084 78.3247 235.931 78.149 235.829 77.911C235.443 77.911 235.098 78.064 234.792 78.37C234.497 78.6647 234.35 79.0103 234.35 79.407V83.062C234.35 83.504 234.372 83.8213 234.418 84.014C234.474 84.2067 234.61 84.3313 234.826 84.388C235.052 84.4333 235.415 84.4673 235.914 84.49C235.936 84.6487 235.936 84.8243 235.914 85.017C235.528 85.017 235.132 85.0113 234.724 85C234.316 84.9887 233.896 84.983 233.466 84.983C233.046 84.983 232.672 84.9887 232.344 85C232.026 85.0113 231.692 85.017 231.341 85.017ZM248.39 74.987V82.892C248.39 83.2433 248.401 83.521 248.424 83.725C248.446 83.929 248.509 84.0763 248.611 84.167C248.713 84.2577 248.877 84.3257 249.104 84.371C249.33 84.405 249.653 84.439 250.073 84.473C250.107 84.6543 250.107 84.8357 250.073 85.017C249.846 85.017 249.568 85.0113 249.24 85C248.911 85 248.582 85 248.254 85C247.936 84.9887 247.67 84.983 247.455 84.983C247.239 84.983 246.967 84.9887 246.639 85C246.321 85 245.998 85 245.67 85C245.352 85.0113 245.069 85.017 244.82 85.017C244.786 84.847 244.786 84.6657 244.82 84.473C245.364 84.4163 245.755 84.3653 245.993 84.32C246.231 84.2633 246.378 84.15 246.435 83.98C246.491 83.81 246.52 83.521 246.52 83.113V75.208C246.52 74.732 246.491 74.392 246.435 74.188C246.378 73.984 246.231 73.8537 245.993 73.797C245.755 73.729 245.364 73.6723 244.82 73.627C244.797 73.457 244.797 73.2757 244.82 73.083C245.058 73.083 245.341 73.0887 245.67 73.1C246.01 73.1 246.344 73.1057 246.673 73.117C247.001 73.117 247.273 73.117 247.489 73.117C247.704 73.117 247.97 73.117 248.288 73.117C248.605 73.1057 248.928 73.1 249.257 73.1C249.585 73.0887 249.857 73.083 250.073 73.083C250.107 73.253 250.107 73.4343 250.073 73.627C249.54 73.6723 249.155 73.7233 248.917 73.78C248.679 73.8367 248.531 73.95 248.475 74.12C248.418 74.29 248.39 74.579 248.39 74.987ZM257.742 85.017C257.719 84.8357 257.719 84.66 257.742 84.49C258.093 84.4673 258.354 84.4333 258.524 84.388C258.694 84.3313 258.807 84.218 258.864 84.048C258.92 83.878 258.949 83.606 258.949 83.232V79.798C258.949 79.118 258.841 78.6137 258.626 78.285C258.422 77.945 258.008 77.775 257.385 77.775C257.056 77.775 256.739 77.8373 256.433 77.962C256.127 78.0753 255.792 78.2963 255.43 78.625V83.062C255.43 83.504 255.452 83.8213 255.498 84.014C255.554 84.2067 255.668 84.3313 255.838 84.388C256.008 84.4333 256.274 84.4673 256.637 84.49C256.659 84.66 256.659 84.8357 256.637 85.017C256.319 85.017 255.985 85.0113 255.634 85C255.294 84.9887 254.925 84.983 254.529 84.983C254.166 84.983 253.809 84.9887 253.458 85C253.106 85.0113 252.761 85.017 252.421 85.017C252.387 84.8357 252.387 84.66 252.421 84.49C252.806 84.4673 253.089 84.4333 253.271 84.388C253.452 84.3313 253.571 84.218 253.628 84.048C253.684 83.878 253.713 83.606 253.713 83.232V79.424C253.713 78.982 253.69 78.6533 253.645 78.438C253.611 78.2227 253.503 78.0753 253.322 77.996C253.152 77.9053 252.857 77.8317 252.438 77.775C252.404 77.6163 252.404 77.469 252.438 77.333C253.412 77.1403 254.308 76.8797 255.124 76.551L255.413 76.653V77.928C255.934 77.452 256.444 77.1177 256.943 76.925C257.441 76.7323 257.917 76.636 258.371 76.636C259.119 76.636 259.691 76.857 260.088 77.299C260.484 77.741 260.683 78.3757 260.683 79.203V83.062C260.683 83.504 260.705 83.8213 260.751 84.014C260.807 84.2067 260.921 84.3313 261.091 84.388C261.261 84.4333 261.533 84.4673 261.907 84.49C261.929 84.66 261.929 84.8357 261.907 85.017C261.567 85.017 261.232 85.0113 260.904 85C260.586 84.9887 260.212 84.983 259.782 84.983C259.362 84.983 258.994 84.9887 258.677 85C258.371 85.0113 258.059 85.017 257.742 85.017ZM279.982 81.481C279.846 82.4783 279.744 83.4927 279.676 84.524C279.053 84.7053 278.418 84.8697 277.772 85.017C277.126 85.1643 276.435 85.238 275.698 85.238C274.44 85.238 273.347 84.9887 272.417 84.49C271.499 83.9913 270.785 83.2943 270.275 82.399C269.765 81.4923 269.51 80.427 269.51 79.203C269.51 77.9677 269.765 76.8797 270.275 75.939C270.785 74.987 271.505 74.2447 272.434 73.712C273.364 73.1793 274.457 72.913 275.715 72.913C276.18 72.913 276.588 72.9413 276.939 72.998C277.291 73.0547 277.716 73.1397 278.214 73.253C278.441 73.2983 278.639 73.3437 278.809 73.389C278.979 73.4343 279.155 73.457 279.336 73.457C279.393 73.457 279.455 73.457 279.523 73.457C279.591 73.4457 279.648 73.4343 279.693 73.423C279.716 73.9217 279.739 74.4373 279.761 74.97C279.784 75.5027 279.818 76.058 279.863 76.636C279.637 76.67 279.444 76.6813 279.285 76.67C278.843 74.6187 277.682 73.593 275.8 73.593C275.041 73.593 274.395 73.746 273.862 74.052C273.33 74.3467 272.899 74.7547 272.57 75.276C272.242 75.786 272.004 76.364 271.856 77.01C271.709 77.656 271.635 78.3303 271.635 79.033C271.635 80.0303 271.783 80.9483 272.077 81.787C272.372 82.6257 272.837 83.2943 273.471 83.793C274.106 84.2917 274.922 84.541 275.919 84.541C276.86 84.541 277.608 84.2917 278.163 83.793C278.73 83.2943 279.138 82.518 279.387 81.464C279.478 81.464 279.569 81.464 279.659 81.464C279.761 81.464 279.869 81.4697 279.982 81.481ZM282.731 85.017C282.697 84.8357 282.697 84.66 282.731 84.49C283.117 84.4673 283.4 84.4333 283.581 84.388C283.763 84.3313 283.882 84.218 283.938 84.048C283.995 83.878 284.023 83.606 284.023 83.232V79.424C284.023 78.982 284.001 78.6533 283.955 78.438C283.921 78.2227 283.814 78.0753 283.632 77.996C283.462 77.9053 283.168 77.8317 282.748 77.775C282.714 77.6163 282.714 77.469 282.748 77.333C283.202 77.2423 283.644 77.1403 284.074 77.027C284.505 76.9023 284.958 76.7437 285.434 76.551L285.723 76.653V78.149C286.517 77.1403 287.327 76.636 288.154 76.636C288.551 76.636 288.846 76.7437 289.038 76.959C289.231 77.163 289.327 77.3953 289.327 77.656C289.327 77.962 289.225 78.2 289.021 78.37C288.817 78.5287 288.585 78.608 288.324 78.608C288.109 78.608 287.894 78.5513 287.678 78.438C287.474 78.3247 287.321 78.149 287.219 77.911C286.834 77.911 286.488 78.064 286.182 78.37C285.888 78.6647 285.74 79.0103 285.74 79.407V83.062C285.74 83.504 285.763 83.8213 285.808 84.014C285.865 84.2067 286.001 84.3313 286.216 84.388C286.443 84.4333 286.806 84.4673 287.304 84.49C287.327 84.6487 287.327 84.8243 287.304 85.017C286.919 85.017 286.522 85.0113 286.114 85C285.706 84.9887 285.287 84.983 284.856 84.983C284.437 84.983 284.063 84.9887 283.734 85C283.417 85.0113 283.083 85.017 282.731 85.017ZM294.676 85.204C293.871 85.204 293.191 85.017 292.636 84.643C292.081 84.269 291.656 83.7703 291.361 83.147C291.078 82.5123 290.936 81.8153 290.936 81.056C290.936 80.274 291.083 79.5487 291.378 78.88C291.684 78.2113 292.126 77.673 292.704 77.265C293.282 76.8457 293.985 76.636 294.812 76.636C295.809 76.636 296.586 76.9363 297.141 77.537C297.708 78.1263 297.991 78.8913 297.991 79.832C297.991 79.9453 297.985 80.0473 297.974 80.138C297.974 80.2173 297.968 80.2853 297.957 80.342L292.602 80.291C292.602 80.3363 292.602 80.376 292.602 80.41C292.602 81.5207 292.857 82.3933 293.367 83.028C293.877 83.6627 294.591 83.98 295.509 83.98C296.28 83.98 297.039 83.7307 297.787 83.232C297.9 83.368 297.985 83.4983 298.042 83.623C297.079 84.677 295.957 85.204 294.676 85.204ZM292.653 79.662L296.172 79.594C296.183 79.5713 296.189 79.543 296.189 79.509C296.189 79.4637 296.189 79.4353 296.189 79.424C296.189 78.812 296.053 78.302 295.781 77.894C295.52 77.486 295.129 77.282 294.608 77.282C294.121 77.282 293.696 77.4803 293.333 77.877C292.97 78.2737 292.744 78.8687 292.653 79.662ZM306.594 85.17C305.846 85.17 305.376 84.796 305.183 84.048C304.378 84.8187 303.557 85.204 302.718 85.204C302.14 85.204 301.647 85.034 301.239 84.694C300.842 84.3427 300.644 83.861 300.644 83.249C300.644 81.753 302.168 80.8123 305.217 80.427C305.217 80.155 305.217 79.8773 305.217 79.594C305.228 79.3107 305.234 79.0103 305.234 78.693C305.234 78.2963 305.087 77.9903 304.792 77.775C304.509 77.5483 304.163 77.435 303.755 77.435C303.46 77.435 303.211 77.4803 303.007 77.571C303.007 77.8317 302.95 78.098 302.837 78.37C302.724 78.642 302.565 78.8743 302.361 79.067C302.168 79.2483 301.93 79.339 301.647 79.339C301.398 79.339 301.199 79.271 301.052 79.135C300.916 78.9877 300.848 78.812 300.848 78.608C300.848 78.336 300.973 78.081 301.222 77.843C301.483 77.5937 301.811 77.384 302.208 77.214C302.605 77.0327 303.018 76.891 303.449 76.789C303.88 76.687 304.265 76.636 304.605 76.636C305.024 76.636 305.41 76.7153 305.761 76.874C306.124 77.0213 306.413 77.248 306.628 77.554C306.855 77.8487 306.968 78.217 306.968 78.659C306.968 78.931 306.962 79.288 306.951 79.73C306.94 80.1607 306.928 80.6253 306.917 81.124C306.917 81.6113 306.911 82.076 306.9 82.518C306.889 82.96 306.883 83.317 306.883 83.589C306.883 83.9517 307.042 84.133 307.359 84.133C307.563 84.133 307.875 84.065 308.294 83.929C308.339 83.9857 308.368 84.048 308.379 84.116C308.402 84.184 308.419 84.2463 308.43 84.303C308.147 84.609 307.846 84.83 307.529 84.966C307.223 85.102 306.911 85.17 306.594 85.17ZM305.183 83.589L305.217 81.039C304.174 81.175 303.455 81.396 303.058 81.702C302.673 82.008 302.48 82.399 302.48 82.875C302.48 83.2717 302.582 83.5777 302.786 83.793C303.001 83.997 303.268 84.099 303.585 84.099C303.789 84.099 304.016 84.0537 304.265 83.963C304.526 83.8723 304.832 83.7477 305.183 83.589ZM313.55 85.204C312.87 85.204 312.332 85.0453 311.935 84.728C311.538 84.3993 311.34 83.929 311.34 83.317C311.34 82.3197 311.346 81.3563 311.357 80.427C311.38 79.4977 311.397 78.6023 311.408 77.741H310.116C310.082 77.571 310.082 77.418 310.116 77.282C311.238 76.806 312.082 76.0297 312.649 74.953C312.74 74.953 312.83 74.9587 312.921 74.97C313.012 74.97 313.091 74.9757 313.159 74.987C313.148 75.2817 313.136 75.5933 313.125 75.922C313.125 76.2507 313.119 76.5963 313.108 76.959H315.692C315.726 77.2083 315.726 77.469 315.692 77.741H313.108C313.085 78.5343 313.068 79.373 313.057 80.257C313.057 81.1297 313.057 82.008 313.057 82.892C313.057 83.81 313.533 84.269 314.485 84.269C314.893 84.269 315.273 84.1613 315.624 83.946C315.726 84.082 315.788 84.252 315.811 84.456C315.142 84.9547 314.389 85.204 313.55 85.204ZM322.055 85.017C321.738 85.017 321.409 85.0113 321.069 85C320.729 84.9887 320.361 84.983 319.964 84.983C319.601 84.983 319.233 84.9887 318.859 85C318.496 85.0113 318.145 85.017 317.805 85.017C317.771 84.8357 317.771 84.66 317.805 84.49C318.19 84.4673 318.474 84.4333 318.655 84.388C318.836 84.3313 318.955 84.218 319.012 84.048C319.069 83.878 319.097 83.606 319.097 83.232V79.424C319.097 78.982 319.08 78.6533 319.046 78.438C319.012 78.2227 318.904 78.0753 318.723 77.996C318.553 77.9053 318.253 77.8317 317.822 77.775C317.788 77.6163 317.788 77.469 317.822 77.333C318.321 77.2423 318.797 77.129 319.25 76.993C319.703 76.857 320.14 76.7097 320.559 76.551L320.848 76.653C320.837 77.0043 320.825 77.333 320.814 77.639C320.814 77.945 320.814 78.234 320.814 78.506V83.062C320.814 83.504 320.837 83.8213 320.882 84.014C320.939 84.2067 321.052 84.3313 321.222 84.388C321.403 84.4333 321.681 84.4673 322.055 84.49C322.089 84.66 322.089 84.8357 322.055 85.017ZM318.655 73.661C318.655 73.3323 318.768 73.0547 318.995 72.828C319.233 72.6013 319.516 72.488 319.845 72.488C320.162 72.488 320.434 72.6013 320.661 72.828C320.899 73.0547 321.018 73.3267 321.018 73.644C321.018 73.9387 320.905 74.2107 320.678 74.46C320.451 74.698 320.162 74.817 319.811 74.817C319.494 74.817 319.222 74.7037 318.995 74.477C318.768 74.2503 318.655 73.9783 318.655 73.661ZM329.55 85.017C329.527 84.8357 329.527 84.66 329.55 84.49C329.901 84.4673 330.162 84.4333 330.332 84.388C330.502 84.3313 330.615 84.218 330.672 84.048C330.728 83.878 330.757 83.606 330.757 83.232V79.798C330.757 79.118 330.649 78.6137 330.434 78.285C330.23 77.945 329.816 77.775 329.193 77.775C328.864 77.775 328.547 77.8373 328.241 77.962C327.935 78.0753 327.6 78.2963 327.238 78.625V83.062C327.238 83.504 327.26 83.8213 327.306 84.014C327.362 84.2067 327.476 84.3313 327.646 84.388C327.816 84.4333 328.082 84.4673 328.445 84.49C328.467 84.66 328.467 84.8357 328.445 85.017C328.127 85.017 327.793 85.0113 327.442 85C327.102 84.9887 326.733 84.983 326.337 84.983C325.974 84.983 325.617 84.9887 325.266 85C324.914 85.0113 324.569 85.017 324.229 85.017C324.195 84.8357 324.195 84.66 324.229 84.49C324.614 84.4673 324.897 84.4333 325.079 84.388C325.26 84.3313 325.379 84.218 325.436 84.048C325.492 83.878 325.521 83.606 325.521 83.232V79.424C325.521 78.982 325.498 78.6533 325.453 78.438C325.419 78.2227 325.311 78.0753 325.13 77.996C324.96 77.9053 324.665 77.8317 324.246 77.775C324.212 77.6163 324.212 77.469 324.246 77.333C325.22 77.1403 326.116 76.8797 326.932 76.551L327.221 76.653V77.928C327.742 77.452 328.252 77.1177 328.751 76.925C329.249 76.7323 329.725 76.636 330.179 76.636C330.927 76.636 331.499 76.857 331.896 77.299C332.292 77.741 332.491 78.3757 332.491 79.203V83.062C332.491 83.504 332.513 83.8213 332.559 84.014C332.615 84.2067 332.729 84.3313 332.899 84.388C333.069 84.4333 333.341 84.4673 333.715 84.49C333.737 84.66 333.737 84.8357 333.715 85.017C333.375 85.017 333.04 85.0113 332.712 85C332.394 84.9887 332.02 84.983 331.59 84.983C331.17 84.983 330.802 84.9887 330.485 85C330.179 85.0113 329.867 85.017 329.55 85.017ZM339.164 89.335C338.166 89.335 337.362 89.1593 336.75 88.808C336.138 88.4567 335.832 87.9693 335.832 87.346C335.832 86.8587 336.002 86.4563 336.342 86.139C336.682 85.8217 337.101 85.5043 337.6 85.187C337.158 85.085 336.823 84.9093 336.597 84.66C336.37 84.3993 336.257 84.0933 336.257 83.742C336.257 83.13 336.704 82.5123 337.6 81.889C337.226 81.651 336.925 81.345 336.699 80.971C336.472 80.5857 336.359 80.1437 336.359 79.645C336.359 79.0217 336.517 78.489 336.835 78.047C337.163 77.5937 337.588 77.248 338.11 77.01C338.642 76.7607 339.209 76.636 339.81 76.636C340.694 76.636 341.43 76.8797 342.02 77.367C342.632 76.8797 343.232 76.636 343.822 76.636C344.116 76.636 344.349 76.704 344.519 76.84C344.689 76.9647 344.774 77.1517 344.774 77.401C344.774 77.6503 344.694 77.8487 344.536 77.996C344.377 78.1433 344.184 78.217 343.958 78.217C343.742 78.217 343.555 78.1547 343.397 78.03C343.249 77.894 343.153 77.707 343.108 77.469C342.949 77.503 342.819 77.5427 342.717 77.588C342.626 77.6333 342.518 77.6957 342.394 77.775C342.779 78.2623 342.972 78.8403 342.972 79.509C342.972 80.1323 342.819 80.665 342.513 81.107C342.207 81.5377 341.799 81.872 341.289 82.11C340.79 82.3367 340.24 82.45 339.64 82.45C339.073 82.45 338.546 82.348 338.059 82.144C337.775 82.4273 337.634 82.7277 337.634 83.045C337.634 83.3283 337.741 83.5097 337.957 83.589C338.172 83.657 338.569 83.691 339.147 83.691C339.407 83.691 339.719 83.691 340.082 83.691C340.444 83.6797 340.711 83.674 340.881 83.674C342.014 83.674 342.83 83.878 343.329 84.286C343.827 84.6827 344.077 85.2323 344.077 85.935C344.077 86.4903 343.941 86.9777 343.669 87.397C343.397 87.8277 343.028 88.1847 342.564 88.468C342.099 88.7627 341.572 88.978 340.983 89.114C340.405 89.2613 339.798 89.335 339.164 89.335ZM338.331 85.272C337.719 85.782 337.413 86.3203 337.413 86.887C337.413 87.2837 337.532 87.6067 337.77 87.856C338.008 88.1053 338.319 88.2867 338.705 88.4C339.09 88.5133 339.498 88.57 339.929 88.57C340.314 88.57 340.716 88.5133 341.136 88.4C341.555 88.2867 341.912 88.0827 342.207 87.788C342.501 87.5047 342.649 87.1023 342.649 86.581C342.649 86.105 342.479 85.765 342.139 85.561C341.81 85.357 341.192 85.255 340.286 85.255C340.07 85.255 339.804 85.255 339.487 85.255C339.169 85.2663 338.818 85.272 338.433 85.272C338.399 85.272 338.365 85.272 338.331 85.272ZM339.674 81.855C340.172 81.855 340.552 81.6567 340.813 81.26C341.085 80.852 341.221 80.291 341.221 79.577C341.221 78.8517 341.085 78.2793 340.813 77.86C340.541 77.4407 340.144 77.231 339.623 77.231C339.135 77.231 338.756 77.4293 338.484 77.826C338.223 78.2113 338.093 78.761 338.093 79.475C338.093 80.2003 338.229 80.7783 338.501 81.209C338.784 81.6397 339.175 81.855 339.674 81.855ZM351.38 73.083C351.606 73.083 351.878 73.0887 352.196 73.1C352.524 73.1 352.847 73.1057 353.165 73.117C353.493 73.117 353.765 73.117 353.981 73.117C354.196 73.117 354.462 73.117 354.78 73.117C355.108 73.1057 355.437 73.1 355.766 73.1C356.094 73.0887 356.372 73.083 356.599 73.083C356.633 73.253 356.633 73.4287 356.599 73.61C356.077 73.6553 355.698 73.7063 355.46 73.763C355.222 73.8197 355.074 73.933 355.018 74.103C354.961 74.273 354.933 74.562 354.933 74.97V80.529C354.933 81.7983 355.205 82.7447 355.749 83.368C356.304 83.98 357.109 84.286 358.163 84.286C359.273 84.286 360.112 83.9403 360.679 83.249C361.245 82.5577 361.529 81.4867 361.529 80.036V75.378C361.529 74.9813 361.512 74.6753 361.478 74.46C361.455 74.2333 361.381 74.069 361.257 73.967C361.143 73.865 360.968 73.797 360.73 73.763C360.492 73.7177 360.157 73.6723 359.727 73.627C359.693 73.457 359.693 73.2813 359.727 73.1C360.033 73.1 360.401 73.1057 360.832 73.117C361.262 73.1283 361.608 73.134 361.869 73.134C362.152 73.134 362.503 73.1283 362.923 73.117C363.353 73.1057 363.727 73.1 364.045 73.1C364.079 73.27 364.079 73.4457 364.045 73.627C363.523 73.6837 363.144 73.7403 362.906 73.797C362.668 73.8537 362.515 73.9783 362.447 74.171C362.39 74.3637 362.362 74.6923 362.362 75.157V80.393C362.362 81.9003 361.971 83.079 361.189 83.929C360.407 84.7677 359.222 85.187 357.636 85.187C356.729 85.187 355.93 85.0397 355.239 84.745C354.559 84.4503 354.026 83.997 353.641 83.385C353.255 82.7617 353.063 81.9797 353.063 81.039V75.191C353.063 74.715 353.034 74.375 352.978 74.171C352.921 73.967 352.774 73.8367 352.536 73.78C352.298 73.712 351.912 73.6553 351.38 73.61C351.346 73.44 351.346 73.2643 351.38 73.083ZM371.314 85.017C371.291 84.8357 371.291 84.66 371.314 84.49C371.665 84.4673 371.926 84.4333 372.096 84.388C372.266 84.3313 372.379 84.218 372.436 84.048C372.492 83.878 372.521 83.606 372.521 83.232V79.798C372.521 79.118 372.413 78.6137 372.198 78.285C371.994 77.945 371.58 77.775 370.957 77.775C370.628 77.775 370.311 77.8373 370.005 77.962C369.699 78.0753 369.364 78.2963 369.002 78.625V83.062C369.002 83.504 369.024 83.8213 369.07 84.014C369.126 84.2067 369.24 84.3313 369.41 84.388C369.58 84.4333 369.846 84.4673 370.209 84.49C370.231 84.66 370.231 84.8357 370.209 85.017C369.891 85.017 369.557 85.0113 369.206 85C368.866 84.9887 368.497 84.983 368.101 84.983C367.738 84.983 367.381 84.9887 367.03 85C366.678 85.0113 366.333 85.017 365.993 85.017C365.959 84.8357 365.959 84.66 365.993 84.49C366.378 84.4673 366.661 84.4333 366.843 84.388C367.024 84.3313 367.143 84.218 367.2 84.048C367.256 83.878 367.285 83.606 367.285 83.232V79.424C367.285 78.982 367.262 78.6533 367.217 78.438C367.183 78.2227 367.075 78.0753 366.894 77.996C366.724 77.9053 366.429 77.8317 366.01 77.775C365.976 77.6163 365.976 77.469 366.01 77.333C366.984 77.1403 367.88 76.8797 368.696 76.551L368.985 76.653V77.928C369.506 77.452 370.016 77.1177 370.515 76.925C371.013 76.7323 371.489 76.636 371.943 76.636C372.691 76.636 373.263 76.857 373.66 77.299C374.056 77.741 374.255 78.3757 374.255 79.203V83.062C374.255 83.504 374.277 83.8213 374.323 84.014C374.379 84.2067 374.493 84.3313 374.663 84.388C374.833 84.4333 375.105 84.4673 375.479 84.49C375.501 84.66 375.501 84.8357 375.479 85.017C375.139 85.017 374.804 85.0113 374.476 85C374.158 84.9887 373.784 84.983 373.354 84.983C372.934 84.983 372.566 84.9887 372.249 85C371.943 85.0113 371.631 85.017 371.314 85.017ZM382.747 77.741H380.622V83.062C380.622 83.504 380.65 83.8213 380.707 84.014C380.775 84.2067 380.922 84.3313 381.149 84.388C381.376 84.4333 381.733 84.4673 382.22 84.49C382.243 84.6487 382.243 84.8243 382.22 85.017C381.835 85.017 381.444 85.0113 381.047 85C380.65 84.9887 380.22 84.983 379.755 84.983C379.302 84.983 378.916 84.9887 378.599 85C378.293 85.0113 377.959 85.017 377.596 85.017C377.585 84.847 377.585 84.6713 377.596 84.49C377.993 84.4673 378.282 84.4333 378.463 84.388C378.644 84.3313 378.758 84.218 378.803 84.048C378.86 83.878 378.888 83.606 378.888 83.232V77.741H377.477C377.443 77.571 377.443 77.418 377.477 77.282C377.896 77.214 378.202 77.1517 378.395 77.095C378.599 77.0383 378.729 76.9533 378.786 76.84C378.854 76.7267 378.894 76.5623 378.905 76.347C378.916 76.109 378.945 75.8087 378.99 75.446C379.047 75.072 379.16 74.681 379.33 74.273C379.5 73.865 379.755 73.4967 380.095 73.168C380.446 72.8393 380.849 72.59 381.302 72.42C381.767 72.25 382.243 72.165 382.73 72.165C383.059 72.165 383.387 72.2103 383.716 72.301C384.045 72.3803 384.322 72.5163 384.549 72.709C384.776 72.9017 384.889 73.1623 384.889 73.491C384.889 73.7517 384.81 73.967 384.651 74.137C384.504 74.2957 384.283 74.375 383.988 74.375C383.591 74.375 383.28 74.2277 383.053 73.933C382.826 73.6383 382.713 73.3267 382.713 72.998C382.634 72.9753 382.549 72.9583 382.458 72.947C382.379 72.9243 382.282 72.913 382.169 72.913C381.636 72.913 381.245 73.1453 380.996 73.61C380.747 74.0747 380.622 74.8623 380.622 75.973V76.959H382.747C382.781 77.2083 382.781 77.469 382.747 77.741ZM389.217 85.204C388.39 85.204 387.665 85.0283 387.041 84.677C386.429 84.3143 385.953 83.8213 385.613 83.198C385.273 82.5633 385.103 81.838 385.103 81.022C385.103 80.138 385.279 79.3673 385.63 78.71C385.993 78.0527 386.497 77.5427 387.143 77.18C387.789 76.8173 388.532 76.636 389.37 76.636C390.198 76.636 390.917 76.8173 391.529 77.18C392.141 77.5427 392.617 78.0413 392.957 78.676C393.297 79.3107 393.467 80.0303 393.467 80.835C393.467 81.6623 393.286 82.4103 392.923 83.079C392.572 83.7363 392.079 84.2577 391.444 84.643C390.81 85.017 390.067 85.204 389.217 85.204ZM387.024 80.818C387.024 81.974 387.211 82.892 387.585 83.572C387.971 84.2407 388.543 84.575 389.302 84.575C390.028 84.575 390.583 84.2577 390.968 83.623C391.354 82.977 391.546 82.1157 391.546 81.039C391.546 79.8943 391.354 78.982 390.968 78.302C390.583 77.622 390.022 77.282 389.285 77.282C388.56 77.282 387.999 77.5937 387.602 78.217C387.217 78.8403 387.024 79.7073 387.024 80.818ZM395.971 85.017C395.937 84.8357 395.937 84.66 395.971 84.49C396.357 84.4673 396.64 84.4333 396.821 84.388C397.003 84.3313 397.122 84.218 397.178 84.048C397.235 83.878 397.263 83.606 397.263 83.232V79.424C397.263 78.982 397.241 78.6533 397.195 78.438C397.161 78.2227 397.054 78.0753 396.872 77.996C396.702 77.9053 396.408 77.8317 395.988 77.775C395.954 77.6163 395.954 77.469 395.988 77.333C396.442 77.2423 396.884 77.1403 397.314 77.027C397.745 76.9023 398.198 76.7437 398.674 76.551L398.963 76.653V78.149C399.757 77.1403 400.567 76.636 401.394 76.636C401.791 76.636 402.086 76.7437 402.278 76.959C402.471 77.163 402.567 77.3953 402.567 77.656C402.567 77.962 402.465 78.2 402.261 78.37C402.057 78.5287 401.825 78.608 401.564 78.608C401.349 78.608 401.134 78.5513 400.918 78.438C400.714 78.3247 400.561 78.149 400.459 77.911C400.074 77.911 399.728 78.064 399.422 78.37C399.128 78.6647 398.98 79.0103 398.98 79.407V83.062C398.98 83.504 399.003 83.8213 399.048 84.014C399.105 84.2067 399.241 84.3313 399.456 84.388C399.683 84.4333 400.046 84.4673 400.544 84.49C400.567 84.6487 400.567 84.8243 400.544 85.017C400.159 85.017 399.762 85.0113 399.354 85C398.946 84.9887 398.527 84.983 398.096 84.983C397.677 84.983 397.303 84.9887 396.974 85C396.657 85.0113 396.323 85.017 395.971 85.017ZM407.636 89.335C406.639 89.335 405.834 89.1593 405.222 88.808C404.61 88.4567 404.304 87.9693 404.304 87.346C404.304 86.8587 404.474 86.4563 404.814 86.139C405.154 85.8217 405.573 85.5043 406.072 85.187C405.63 85.085 405.296 84.9093 405.069 84.66C404.842 84.3993 404.729 84.0933 404.729 83.742C404.729 83.13 405.177 82.5123 406.072 81.889C405.698 81.651 405.398 81.345 405.171 80.971C404.944 80.5857 404.831 80.1437 404.831 79.645C404.831 79.0217 404.99 78.489 405.307 78.047C405.636 77.5937 406.061 77.248 406.582 77.01C407.115 76.7607 407.681 76.636 408.282 76.636C409.166 76.636 409.903 76.8797 410.492 77.367C411.104 76.8797 411.705 76.636 412.294 76.636C412.589 76.636 412.821 76.704 412.991 76.84C413.161 76.9647 413.246 77.1517 413.246 77.401C413.246 77.6503 413.167 77.8487 413.008 77.996C412.849 78.1433 412.657 78.217 412.43 78.217C412.215 78.217 412.028 78.1547 411.869 78.03C411.722 77.894 411.625 77.707 411.58 77.469C411.421 77.503 411.291 77.5427 411.189 77.588C411.098 77.6333 410.991 77.6957 410.866 77.775C411.251 78.2623 411.444 78.8403 411.444 79.509C411.444 80.1323 411.291 80.665 410.985 81.107C410.679 81.5377 410.271 81.872 409.761 82.11C409.262 82.3367 408.713 82.45 408.112 82.45C407.545 82.45 407.018 82.348 406.531 82.144C406.248 82.4273 406.106 82.7277 406.106 83.045C406.106 83.3283 406.214 83.5097 406.429 83.589C406.644 83.657 407.041 83.691 407.619 83.691C407.88 83.691 408.191 83.691 408.554 83.691C408.917 83.6797 409.183 83.674 409.353 83.674C410.486 83.674 411.302 83.878 411.801 84.286C412.3 84.6827 412.549 85.2323 412.549 85.935C412.549 86.4903 412.413 86.9777 412.141 87.397C411.869 87.8277 411.501 88.1847 411.036 88.468C410.571 88.7627 410.044 88.978 409.455 89.114C408.877 89.2613 408.271 89.335 407.636 89.335ZM406.803 85.272C406.191 85.782 405.885 86.3203 405.885 86.887C405.885 87.2837 406.004 87.6067 406.242 87.856C406.48 88.1053 406.792 88.2867 407.177 88.4C407.562 88.5133 407.97 88.57 408.401 88.57C408.786 88.57 409.189 88.5133 409.608 88.4C410.027 88.2867 410.384 88.0827 410.679 87.788C410.974 87.5047 411.121 87.1023 411.121 86.581C411.121 86.105 410.951 85.765 410.611 85.561C410.282 85.357 409.665 85.255 408.758 85.255C408.543 85.255 408.276 85.255 407.959 85.255C407.642 85.2663 407.29 85.272 406.905 85.272C406.871 85.272 406.837 85.272 406.803 85.272ZM408.146 81.855C408.645 81.855 409.024 81.6567 409.285 81.26C409.557 80.852 409.693 80.291 409.693 79.577C409.693 78.8517 409.557 78.2793 409.285 77.86C409.013 77.4407 408.616 77.231 408.095 77.231C407.608 77.231 407.228 77.4293 406.956 77.826C406.695 78.2113 406.565 78.761 406.565 79.475C406.565 80.2003 406.701 80.7783 406.973 81.209C407.256 81.6397 407.647 81.855 408.146 81.855ZM418.755 85.204C417.951 85.204 417.271 85.017 416.715 84.643C416.16 84.269 415.735 83.7703 415.44 83.147C415.157 82.5123 415.015 81.8153 415.015 81.056C415.015 80.274 415.163 79.5487 415.457 78.88C415.763 78.2113 416.205 77.673 416.783 77.265C417.361 76.8457 418.064 76.636 418.891 76.636C419.889 76.636 420.665 76.9363 421.22 77.537C421.787 78.1263 422.07 78.8913 422.07 79.832C422.07 79.9453 422.065 80.0473 422.053 80.138C422.053 80.2173 422.048 80.2853 422.036 80.342L416.681 80.291C416.681 80.3363 416.681 80.376 416.681 80.41C416.681 81.5207 416.936 82.3933 417.446 83.028C417.956 83.6627 418.67 83.98 419.588 83.98C420.359 83.98 421.118 83.7307 421.866 83.232C421.98 83.368 422.065 83.4983 422.121 83.623C421.158 84.677 420.036 85.204 418.755 85.204ZM416.732 79.662L420.251 79.594C420.263 79.5713 420.268 79.543 420.268 79.509C420.268 79.4637 420.268 79.4353 420.268 79.424C420.268 78.812 420.132 78.302 419.86 77.894C419.6 77.486 419.209 77.282 418.687 77.282C418.2 77.282 417.775 77.4803 417.412 77.877C417.05 78.2737 416.823 78.8687 416.732 79.662ZM427.885 85.204C427.205 85.204 426.667 85.0453 426.27 84.728C425.874 84.3993 425.675 83.929 425.675 83.317C425.675 82.3197 425.681 81.3563 425.692 80.427C425.715 79.4977 425.732 78.6023 425.743 77.741H424.451C424.417 77.571 424.417 77.418 424.451 77.282C425.573 76.806 426.418 76.0297 426.984 74.953C427.075 74.953 427.166 74.9587 427.256 74.97C427.347 74.97 427.426 74.9757 427.494 74.987C427.483 75.2817 427.472 75.5933 427.46 75.922C427.46 76.2507 427.455 76.5963 427.443 76.959H430.027C430.061 77.2083 430.061 77.469 430.027 77.741H427.443C427.421 78.5343 427.404 79.373 427.392 80.257C427.392 81.1297 427.392 82.008 427.392 82.892C427.392 83.81 427.868 84.269 428.82 84.269C429.228 84.269 429.608 84.1613 429.959 83.946C430.061 84.082 430.124 84.252 430.146 84.456C429.478 84.9547 428.724 85.204 427.885 85.204ZM435.239 85.204C434.559 85.204 434.02 85.0453 433.624 84.728C433.227 84.3993 433.029 83.929 433.029 83.317C433.029 82.3197 433.034 81.3563 433.046 80.427C433.068 79.4977 433.085 78.6023 433.097 77.741H431.805C431.771 77.571 431.771 77.418 431.805 77.282C432.927 76.806 433.771 76.0297 434.338 74.953C434.428 74.953 434.519 74.9587 434.61 74.97C434.7 74.97 434.78 74.9757 434.848 74.987C434.836 75.2817 434.825 75.5933 434.814 75.922C434.814 76.2507 434.808 76.5963 434.797 76.959H437.381C437.415 77.2083 437.415 77.469 437.381 77.741H434.797C434.774 78.5343 434.757 79.373 434.746 80.257C434.746 81.1297 434.746 82.008 434.746 82.892C434.746 83.81 435.222 84.269 436.174 84.269C436.582 84.269 436.961 84.1613 437.313 83.946C437.415 84.082 437.477 84.252 437.5 84.456C436.831 84.9547 436.077 85.204 435.239 85.204ZM445.546 85.17C444.798 85.17 444.328 84.796 444.135 84.048C443.33 84.8187 442.509 85.204 441.67 85.204C441.092 85.204 440.599 85.034 440.191 84.694C439.794 84.3427 439.596 83.861 439.596 83.249C439.596 81.753 441.12 80.8123 444.169 80.427C444.169 80.155 444.169 79.8773 444.169 79.594C444.18 79.3107 444.186 79.0103 444.186 78.693C444.186 78.2963 444.039 77.9903 443.744 77.775C443.461 77.5483 443.115 77.435 442.707 77.435C442.412 77.435 442.163 77.4803 441.959 77.571C441.959 77.8317 441.902 78.098 441.789 78.37C441.676 78.642 441.517 78.8743 441.313 79.067C441.12 79.2483 440.882 79.339 440.599 79.339C440.35 79.339 440.151 79.271 440.004 79.135C439.868 78.9877 439.8 78.812 439.8 78.608C439.8 78.336 439.925 78.081 440.174 77.843C440.435 77.5937 440.763 77.384 441.16 77.214C441.557 77.0327 441.97 76.891 442.401 76.789C442.832 76.687 443.217 76.636 443.557 76.636C443.976 76.636 444.362 76.7153 444.713 76.874C445.076 77.0213 445.365 77.248 445.58 77.554C445.807 77.8487 445.92 78.217 445.92 78.659C445.92 78.931 445.914 79.288 445.903 79.73C445.892 80.1607 445.88 80.6253 445.869 81.124C445.869 81.6113 445.863 82.076 445.852 82.518C445.841 82.96 445.835 83.317 445.835 83.589C445.835 83.9517 445.994 84.133 446.311 84.133C446.515 84.133 446.827 84.065 447.246 83.929C447.291 83.9857 447.32 84.048 447.331 84.116C447.354 84.184 447.371 84.2463 447.382 84.303C447.099 84.609 446.798 84.83 446.481 84.966C446.175 85.102 445.863 85.17 445.546 85.17ZM444.135 83.589L444.169 81.039C443.126 81.175 442.407 81.396 442.01 81.702C441.625 82.008 441.432 82.399 441.432 82.875C441.432 83.2717 441.534 83.5777 441.738 83.793C441.953 83.997 442.22 84.099 442.537 84.099C442.741 84.099 442.968 84.0537 443.217 83.963C443.478 83.8723 443.784 83.7477 444.135 83.589ZM453.607 85.204C453.176 85.204 452.751 85.1473 452.332 85.034C451.912 84.9207 451.493 84.7563 451.074 84.541C450.994 84.643 450.915 84.7393 450.836 84.83C450.756 84.9207 450.683 85.017 450.615 85.119C450.535 85.1077 450.456 85.0963 450.377 85.085C450.309 85.0737 450.246 85.0623 450.19 85.051C450.212 84.847 450.224 84.5807 450.224 84.252C450.224 83.912 450.224 83.5153 450.224 83.062V74.715C450.224 74.3637 450.19 74.103 450.122 73.933C450.054 73.7517 449.918 73.627 449.714 73.559C449.521 73.4797 449.226 73.423 448.83 73.389C448.796 73.2417 448.796 73.0887 448.83 72.93C449.283 72.8733 449.748 72.7883 450.224 72.675C450.7 72.5503 451.187 72.3803 451.686 72.165L451.975 72.267C451.963 72.5163 451.952 72.7997 451.941 73.117C451.941 73.4343 451.941 73.78 451.941 74.154V77.775C452.405 77.3557 452.853 77.061 453.284 76.891C453.726 76.721 454.156 76.636 454.576 76.636C455.29 76.636 455.896 76.8287 456.395 77.214C456.905 77.588 457.29 78.081 457.551 78.693C457.823 79.2937 457.959 79.9397 457.959 80.631C457.959 81.4357 457.772 82.1893 457.398 82.892C457.035 83.5833 456.525 84.1443 455.868 84.575C455.222 84.9943 454.468 85.204 453.607 85.204ZM451.924 78.523V83.657C452.445 84.2463 453.074 84.541 453.811 84.541C454.389 84.541 454.853 84.3823 455.205 84.065C455.556 83.7477 455.805 83.334 455.953 82.824C456.111 82.314 456.191 81.7757 456.191 81.209C456.191 80.6537 456.111 80.1097 455.953 79.577C455.805 79.033 455.556 78.5853 455.205 78.234C454.865 77.8713 454.394 77.69 453.794 77.69C453.465 77.69 453.142 77.758 452.825 77.894C452.507 78.03 452.207 78.2397 451.924 78.523ZM464.607 85.017C464.278 85.017 463.944 85.0113 463.604 85C463.264 84.9887 462.884 84.983 462.465 84.983C462.046 84.983 461.672 84.9887 461.343 85C461.014 85.0113 460.68 85.017 460.34 85.017C460.306 84.8357 460.306 84.66 460.34 84.49C460.725 84.4673 461.009 84.4333 461.19 84.388C461.371 84.3313 461.49 84.218 461.547 84.048C461.604 83.878 461.632 83.606 461.632 83.232V74.715C461.632 74.3637 461.598 74.103 461.53 73.933C461.473 73.7517 461.343 73.627 461.139 73.559C460.946 73.4797 460.652 73.423 460.255 73.389C460.221 73.2417 460.221 73.0887 460.255 72.93C460.708 72.8733 461.173 72.7883 461.649 72.675C462.125 72.5503 462.612 72.3803 463.111 72.165L463.4 72.267C463.389 72.5163 463.377 72.7997 463.366 73.117C463.366 73.4343 463.366 73.78 463.366 74.154V83.062C463.366 83.504 463.389 83.8213 463.434 84.014C463.491 84.2067 463.604 84.3313 463.774 84.388C463.955 84.4333 464.233 84.4673 464.607 84.49C464.63 84.66 464.63 84.8357 464.607 85.017ZM470.727 85.204C469.922 85.204 469.242 85.017 468.687 84.643C468.132 84.269 467.707 83.7703 467.412 83.147C467.129 82.5123 466.987 81.8153 466.987 81.056C466.987 80.274 467.134 79.5487 467.429 78.88C467.735 78.2113 468.177 77.673 468.755 77.265C469.333 76.8457 470.036 76.636 470.863 76.636C471.86 76.636 472.637 76.9363 473.192 77.537C473.759 78.1263 474.042 78.8913 474.042 79.832C474.042 79.9453 474.036 80.0473 474.025 80.138C474.025 80.2173 474.019 80.2853 474.008 80.342L468.653 80.291C468.653 80.3363 468.653 80.376 468.653 80.41C468.653 81.5207 468.908 82.3933 469.418 83.028C469.928 83.6627 470.642 83.98 471.56 83.98C472.331 83.98 473.09 83.7307 473.838 83.232C473.951 83.368 474.036 83.4983 474.093 83.623C473.13 84.677 472.008 85.204 470.727 85.204ZM468.704 79.662L472.223 79.594C472.234 79.5713 472.24 79.543 472.24 79.509C472.24 79.4637 472.24 79.4353 472.24 79.424C472.24 78.812 472.104 78.302 471.832 77.894C471.571 77.486 471.18 77.282 470.659 77.282C470.172 77.282 469.747 77.4803 469.384 77.877C469.021 78.2737 468.795 78.8687 468.704 79.662ZM481.79 85.017C481.768 84.847 481.768 84.6657 481.79 84.473C482.323 84.4163 482.703 84.3653 482.929 84.32C483.156 84.2633 483.298 84.15 483.354 83.98C483.411 83.7987 483.439 83.5097 483.439 83.113V75.208C483.439 74.732 483.411 74.392 483.354 74.188C483.298 73.984 483.15 73.8537 482.912 73.797C482.686 73.729 482.312 73.6723 481.79 73.627C481.768 73.457 481.768 73.2757 481.79 73.083C482.085 73.083 482.34 73.0887 482.555 73.1C482.782 73.1 483.009 73.1 483.235 73.1C483.462 73.1 483.734 73.1057 484.051 73.117C484.369 73.117 484.771 73.117 485.258 73.117C486.154 73.117 486.992 73.117 487.774 73.117C488.556 73.1057 489.208 73.1 489.729 73.1C490.251 73.0887 490.557 73.083 490.647 73.083C490.693 73.5023 490.744 73.933 490.8 74.375C490.868 74.817 490.942 75.2873 491.021 75.786C490.829 75.8087 490.642 75.8087 490.46 75.786C490.324 75.446 490.166 75.1457 489.984 74.885C489.803 74.6243 489.616 74.426 489.423 74.29C489.208 74.1313 488.947 74.0123 488.641 73.933C488.347 73.8537 487.978 73.814 487.536 73.814H485.309V78.455H486.244C486.788 78.455 487.202 78.421 487.485 78.353C487.769 78.2737 487.978 78.1093 488.114 77.86C488.25 77.5993 488.358 77.1913 488.437 76.636C488.641 76.602 488.834 76.602 489.015 76.636C489.004 77.1347 488.993 77.52 488.981 77.792C488.981 78.0527 488.981 78.2453 488.981 78.37C488.981 78.4947 488.981 78.5967 488.981 78.676C488.981 78.744 488.981 78.8007 488.981 78.846L489.015 81.09C488.845 81.124 488.653 81.124 488.437 81.09C488.369 80.4893 488.267 80.0587 488.131 79.798C487.995 79.5373 487.791 79.373 487.519 79.305C487.259 79.237 486.885 79.203 486.397 79.203H485.309V82.892C485.309 83.2773 485.309 83.589 485.309 83.827C485.321 84.0537 485.332 84.201 485.343 84.269H487.672C488.239 84.269 488.692 84.2237 489.032 84.133C489.384 84.031 489.673 83.8837 489.899 83.691C490.058 83.5663 490.245 83.351 490.46 83.045C490.676 82.7277 490.88 82.365 491.072 81.957C491.254 81.9343 491.429 81.9343 491.599 81.957C491.486 82.5917 491.39 83.164 491.31 83.674C491.231 84.184 491.163 84.626 491.106 85C490.596 85 490.041 85 489.44 85C488.84 85 488.239 85 487.638 85C487.038 84.9887 486.488 84.983 485.989 84.983C485.502 84.983 485.111 84.983 484.816 84.983C484.284 84.983 483.847 84.9887 483.507 85C483.179 85 482.884 85 482.623 85C482.374 85.0113 482.096 85.017 481.79 85.017ZM497.84 84.915L496.905 85.102L494.253 78.455C494.163 78.2057 494.066 78.0187 493.964 77.894C493.862 77.758 493.726 77.656 493.556 77.588C493.398 77.52 493.16 77.469 492.842 77.435C492.82 77.2763 492.82 77.095 492.842 76.891C493.171 76.891 493.511 76.8967 493.862 76.908C494.225 76.9193 494.582 76.925 494.933 76.925C495.262 76.925 495.619 76.9193 496.004 76.908C496.39 76.8967 496.713 76.891 496.973 76.891C497.007 77.0723 497.007 77.2537 496.973 77.435C496.588 77.4577 496.322 77.4973 496.174 77.554C496.038 77.6107 495.97 77.7297 495.97 77.911C495.97 78.0017 495.987 78.115 496.021 78.251C496.067 78.387 496.106 78.5003 496.14 78.591C496.174 78.6817 496.242 78.863 496.344 79.135C496.446 79.407 496.565 79.7243 496.701 80.087C496.849 80.4383 496.996 80.8067 497.143 81.192C497.291 81.566 497.427 81.9117 497.551 82.229C497.687 82.5463 497.795 82.8013 497.874 82.994C498.112 82.45 498.396 81.7927 498.724 81.022C499.064 80.2513 499.393 79.4693 499.71 78.676C499.767 78.5173 499.812 78.3757 499.846 78.251C499.892 78.115 499.914 78.0073 499.914 77.928C499.914 77.7693 499.841 77.656 499.693 77.588C499.546 77.52 499.28 77.469 498.894 77.435C498.883 77.2537 498.883 77.0723 498.894 76.891C499.189 76.891 499.467 76.8967 499.727 76.908C499.999 76.9193 500.322 76.925 500.696 76.925C500.866 76.925 501.025 76.925 501.172 76.925C501.331 76.9137 501.62 76.9023 502.039 76.891C502.062 77.0837 502.062 77.265 502.039 77.435C501.563 77.469 501.24 77.5767 501.07 77.758C500.9 77.928 500.736 78.1887 500.577 78.54L497.84 84.915ZM507.096 85.204C506.291 85.204 505.611 85.017 505.056 84.643C504.5 84.269 504.075 83.7703 503.781 83.147C503.497 82.5123 503.356 81.8153 503.356 81.056C503.356 80.274 503.503 79.5487 503.798 78.88C504.104 78.2113 504.546 77.673 505.124 77.265C505.702 76.8457 506.404 76.636 507.232 76.636C508.229 76.636 509.005 76.9363 509.561 77.537C510.127 78.1263 510.411 78.8913 510.411 79.832C510.411 79.9453 510.405 80.0473 510.394 80.138C510.394 80.2173 510.388 80.2853 510.377 80.342L505.022 80.291C505.022 80.3363 505.022 80.376 505.022 80.41C505.022 81.5207 505.277 82.3933 505.787 83.028C506.297 83.6627 507.011 83.98 507.929 83.98C508.699 83.98 509.459 83.7307 510.207 83.232C510.32 83.368 510.405 83.4983 510.462 83.623C509.498 84.677 508.376 85.204 507.096 85.204ZM505.073 79.662L508.592 79.594C508.603 79.5713 508.609 79.543 508.609 79.509C508.609 79.4637 508.609 79.4353 508.609 79.424C508.609 78.812 508.473 78.302 508.201 77.894C507.94 77.486 507.549 77.282 507.028 77.282C506.54 77.282 506.115 77.4803 505.753 77.877C505.39 78.2737 505.163 78.8687 505.073 79.662ZM518.283 85.017C518.26 84.8357 518.26 84.66 518.283 84.49C518.634 84.4673 518.895 84.4333 519.065 84.388C519.235 84.3313 519.348 84.218 519.405 84.048C519.461 83.878 519.49 83.606 519.49 83.232V79.798C519.49 79.118 519.382 78.6137 519.167 78.285C518.963 77.945 518.549 77.775 517.926 77.775C517.597 77.775 517.28 77.8373 516.974 77.962C516.668 78.0753 516.333 78.2963 515.971 78.625V83.062C515.971 83.504 515.993 83.8213 516.039 84.014C516.095 84.2067 516.209 84.3313 516.379 84.388C516.549 84.4333 516.815 84.4673 517.178 84.49C517.2 84.66 517.2 84.8357 517.178 85.017C516.86 85.017 516.526 85.0113 516.175 85C515.835 84.9887 515.466 84.983 515.07 84.983C514.707 84.983 514.35 84.9887 513.999 85C513.647 85.0113 513.302 85.017 512.962 85.017C512.928 84.8357 512.928 84.66 512.962 84.49C513.347 84.4673 513.63 84.4333 513.812 84.388C513.993 84.3313 514.112 84.218 514.169 84.048C514.225 83.878 514.254 83.606 514.254 83.232V79.424C514.254 78.982 514.231 78.6533 514.186 78.438C514.152 78.2227 514.044 78.0753 513.863 77.996C513.693 77.9053 513.398 77.8317 512.979 77.775C512.945 77.6163 512.945 77.469 512.979 77.333C513.953 77.1403 514.849 76.8797 515.665 76.551L515.954 76.653V77.928C516.475 77.452 516.985 77.1177 517.484 76.925C517.982 76.7323 518.458 76.636 518.912 76.636C519.66 76.636 520.232 76.857 520.629 77.299C521.025 77.741 521.224 78.3757 521.224 79.203V83.062C521.224 83.504 521.246 83.8213 521.292 84.014C521.348 84.2067 521.462 84.3313 521.632 84.388C521.802 84.4333 522.074 84.4673 522.448 84.49C522.47 84.66 522.47 84.8357 522.448 85.017C522.108 85.017 521.773 85.0113 521.445 85C521.127 84.9887 520.753 84.983 520.323 84.983C519.903 84.983 519.535 84.9887 519.218 85C518.912 85.0113 518.6 85.017 518.283 85.017ZM527.829 85.204C527.149 85.204 526.611 85.0453 526.214 84.728C525.817 84.3993 525.619 83.929 525.619 83.317C525.619 82.3197 525.625 81.3563 525.636 80.427C525.659 79.4977 525.676 78.6023 525.687 77.741H524.395C524.361 77.571 524.361 77.418 524.395 77.282C525.517 76.806 526.361 76.0297 526.928 74.953C527.019 74.953 527.109 74.9587 527.2 74.97C527.291 74.97 527.37 74.9757 527.438 74.987C527.427 75.2817 527.415 75.5933 527.404 75.922C527.404 76.2507 527.398 76.5963 527.387 76.959H529.971C530.005 77.2083 530.005 77.469 529.971 77.741H527.387C527.364 78.5343 527.347 79.373 527.336 80.257C527.336 81.1297 527.336 82.008 527.336 82.892C527.336 83.81 527.812 84.269 528.764 84.269C529.172 84.269 529.552 84.1613 529.903 83.946C530.005 84.082 530.067 84.252 530.09 84.456C529.421 84.9547 528.668 85.204 527.829 85.204ZM532.866 82.314C533.036 83.062 533.308 83.6343 533.682 84.031C534.056 84.4163 534.538 84.609 535.127 84.609C535.569 84.609 535.943 84.507 536.249 84.303C536.555 84.0877 536.708 83.7533 536.708 83.3C536.708 82.96 536.623 82.688 536.453 82.484C536.294 82.28 536.068 82.11 535.773 81.974C535.49 81.8267 535.167 81.6793 534.804 81.532C534.385 81.362 533.988 81.1807 533.614 80.988C533.251 80.784 532.951 80.5347 532.713 80.24C532.486 79.934 532.373 79.543 532.373 79.067C532.373 78.523 532.515 78.0753 532.798 77.724C533.093 77.3613 533.467 77.0893 533.92 76.908C534.385 76.7267 534.878 76.636 535.399 76.636C535.66 76.636 535.92 76.653 536.181 76.687C536.442 76.721 536.583 76.738 536.606 76.738C536.833 76.772 537.042 76.7947 537.235 76.806C537.428 76.806 537.53 76.806 537.541 76.806C537.552 76.806 537.575 76.806 537.609 76.806C537.654 76.806 537.711 76.8003 537.779 76.789C537.779 77.1517 537.785 77.52 537.796 77.894C537.807 78.268 537.83 78.6647 537.864 79.084C537.853 79.084 537.83 79.084 537.796 79.084C537.694 79.0953 537.598 79.1067 537.507 79.118C537.428 79.118 537.348 79.1123 537.269 79.101C537.122 78.4663 536.901 78.0073 536.606 77.724C536.323 77.4293 535.92 77.282 535.399 77.282C534.934 77.282 534.56 77.384 534.277 77.588C534.005 77.792 533.869 78.0753 533.869 78.438C533.869 78.7327 533.96 78.9763 534.141 79.169C534.322 79.3503 534.543 79.5033 534.804 79.628C535.065 79.7527 535.314 79.8603 535.552 79.951C535.994 80.121 536.413 80.3137 536.81 80.529C537.218 80.733 537.547 80.9993 537.796 81.328C538.057 81.6567 538.187 82.0987 538.187 82.654C538.187 83.2433 538.034 83.7307 537.728 84.116C537.433 84.49 537.054 84.7677 536.589 84.949C536.124 85.119 535.637 85.204 535.127 85.204C534.832 85.204 534.538 85.1813 534.243 85.136C533.96 85.0907 533.807 85.068 533.784 85.068C533.761 85.068 533.665 85.0567 533.495 85.034C533.336 85.0113 533.155 84.9887 532.951 84.966C532.758 84.9433 532.588 84.932 532.441 84.932C532.441 84.5807 532.424 84.1897 532.39 83.759C532.367 83.3283 532.339 82.8523 532.305 82.331C532.328 82.331 532.356 82.331 532.39 82.331C532.492 82.3197 532.577 82.314 532.645 82.314C532.724 82.3027 532.798 82.3027 532.866 82.314Z" fill="url(#paint2_linear_229_649)"/>
<path d="M50.0529 6L52.0124 6.1934L53.7761 6.58019L55.7356 7.35377L57.4992 8.32075L59.0669 9.38443L60.6345 10.8349L61.9082 12.3821L62.4961 13.5425L62.6921 13.8325L62.888 13.9292H63.182L63.3779 13.7358L64.1617 12.7689L64.9456 11.8986L66.6112 10.2547L68.3748 8.70755L70.3344 7.16038L72 7.93396L71.6081 8.03066L70.6283 8.41745L69.3546 8.99764L68.1788 9.86792L67.1011 10.9316L65.0435 13.4458L64.0638 14.7028L63.182 16.25L62.2022 17.7005L61.2224 19.1509L59.2628 22.2453L58.283 23.6958L57.0093 24.8561L55.6376 25.8231L54.168 26.5L53.6781 25.9198L54.6579 25.533L55.7356 24.7594L56.6174 23.6958L57.2053 22.2453L57.4992 20.8915L57.5972 19.7311V18.6675L57.4992 17.6038L57.2053 16.4434L56.4215 14.7028L55.3437 13.2524L54.07 11.8019L52.6003 10.6415L50.9347 9.77123L49.1711 9.09434L47.3095 8.70755L45.6439 8.51415H43.1944L39.2753 8.90094L35.4541 9.86792L31.633 11.5118L28.2037 13.2524L24.8725 15.4764L21.9331 17.8939L18.9938 20.7948L17.1322 22.9222L15.6625 25.4363L14.2908 27.9505L13.409 30.8514L13.0171 33.0755V34.2358V35.2995L13.409 36.3632L13.9969 37.4269L14.6827 38.3939L15.4666 39.3608L16.3484 39.941L17.4261 40.3278L18.7978 40.6179L20.0715 40.7146H22.717L25.1664 40.2311L27.8118 39.3608L30.4572 38.3939L34.7297 36.5V36.9432V44.1955L31.437 45.5495L27.6159 46.5165L23.5008 47H19.4837L17.1322 46.7099L15.0747 46.2264L13.311 45.2594L11.9393 44.0991L10.9596 43.1321L10.1757 41.875L9.58787 40.7146L9.29393 39.5542L9.09798 38.1038L9 36.6533V35.0094L9.29393 33.4623L9.68585 31.8184L10.2737 30.1745L11.7434 27.0802L13.8009 23.9858L16.2504 20.9882L18.7978 18.184L21.9331 15.6698L25.0684 13.4458L28.2037 11.5118L31.633 9.86792L35.0622 8.41745L38.6874 7.16038L42.6065 6.29009L46.4277 6H50.0529Z" fill="url(#paint3_linear_229_649)"/>
<path d="M80.824 12H81.429L81.6307 12.3925L82.0341 13.1776L82.74 14.0607L83.4963 14.7967L84.2526 15.5327L85.9669 16.9065L87.8828 18.1822L88.9417 18.771L90.0005 19.3598L89.8996 19.5561L89.1938 19.3598L87.9837 19.0654L86.5719 18.9673L83.5467 19.0654L81.5299 19.5561L80.0173 20.4393L78.7064 21.5187L77.2946 22.8925L75.5803 25.1495L73.9669 27.7009L72.3534 30.1542L71 32.5L69.6307 31.9206L68.4206 31.4299L67.2101 31L66 30.7056L67.0089 28.3879L68.4206 25.4439L69.9332 22.5981L71.4459 20.243L73.1601 17.8879L74.3702 16.514L75.9837 15.0421L78.1013 13.5701L79.5131 12.6869L80.824 12Z" fill="url(#paint4_linear_229_649)"/>
<path d="M43.2207 33.0104L44.7036 32.2183L46.6082 31.5431L50.618 30.3858L54.728 30H58.9383L63.1486 30.3858L67.0581 31.2538L71.1681 32.9898L74.9774 35.2081L76.8821 36.6548L78.7867 38.3909L80.4909 40.3198L81.6938 42.3452L82.6962 44.467L83.3979 46.6853L83.7989 49L83.9994 51.4112L83.7989 53.8223L83.3979 56.4264L82.8967 58.4518L82.2953 60.6701L81.4933 62.7919L80.3906 64.7208L79.1877 66.4569L78 68L74.0752 64.0457L75.1779 62.599L76.0801 60.6701L76.5813 58.934L76.8821 57.0051L77.0825 54.9797V52.8579L76.8821 50.6396L76.3808 48.6142L75.6791 46.7817L74.6767 45.1421L73.6742 43.6954L72.4713 42.3452L70.9676 40.9949L69.5642 39.934L68.261 39.1624L66.7574 38.3909L65.2537 37.9086L63.75 37.5228L62.2464 37.3299L60.6424 37.1371L59.0385 37.0406H57.3344L55.7305 37.1371L54.2268 37.3299L52.8234 37.5228L51.3197 37.8122L49.9163 38.1015L48.6131 38.3909L45.9065 39.2589L44.4028 39.7411L43.2207 40.1474V33.0104Z" fill="url(#paint5_linear_229_649)"/>
<path d="M33.8369 84.5L34.9881 84.5962L36.2439 84.6923L37.4997 84.7404L38.7555 84.7885L41.3718 84.6923L43.8834 84.5L44.4067 87.6731L44.9299 89.3077L45.7671 91.0385L46.4997 92.4808L47.4415 93.7308L49.3253 96.1346L50.2671 97.0962L51.209 98.0577L50.1625 99.5L48.9067 97.9615L47.4415 96.5192L45.8718 95.4615L44.1974 94.5962L42.6276 93.8269L41.0578 93.0577L39.3834 92.4808L37.8136 92L36.0346 91.6154L34.3601 91.3269L32.6857 91.0385L30.9067 90.75L29.1276 90.5577L27.4532 90.4615H25.8834L24.209 90.6538L24.4183 90.0769L25.8834 89.8846L27.4532 89.5L28.9183 88.9231L30.2788 88.25L31.4299 87.3846L32.3718 86.5192L33.209 85.5577L33.8369 84.5Z" fill="url(#paint6_linear_229_649)"/>
<path d="M47.2072 11.7738L47.9044 11L49 11.7738L47.6056 12.8379L46.4104 14.0954L45.3147 15.7398L44.5179 17.5777L43.7211 19.609L43.2231 21.7371L42.7251 25.1226L42.5259 75.2289V76.97V78.7112L42.6255 80.4523L42.7603 81.6325H39H36.882L34.8918 81.5L35.255 80.4523L35.4542 78.7112L35.6534 75.2289L35.255 28.3147L35.0558 27.0572L34.5578 25.8965L34.0598 24.9292L33.2629 24.0586L32.0677 23.3815L30.9721 22.9946L29.7769 22.7044L28.2829 22.5109H27.0876H25.992L24 22.7044V21.6403L25.3944 21.7371L26.8884 21.6403L28.4821 21.4469L29.9761 21.1567L31.6693 20.673L33.4622 19.9959L36.0518 18.9319L39.1394 17.3842L42.1275 15.6431L44.8167 13.9019L46.2112 12.7411L47.2072 11.7738Z" fill="url(#paint7_linear_229_649)"/>
<path d="M18.1205 59.7818L18.5181 60.3429L19.0151 60.8104L19.7108 61.2779L20.4066 61.4649L21.2018 61.6519H21.8976H22.6928L23.3886 61.4649L24.1837 61.0909L24.7801 60.7169L25.3765 60.2494L25.8735 59.5948L26.2711 57.9117V56.8831L26.0723 55.8545L25.2771 54.5455L24.3825 53.4234L23.3886 52.5818L22.0964 51.9273L20.7048 51.6468L19.1145 51.4597H17.4247L15.7349 51.6468L14.1446 52.2078L12.4548 53.0494L11.0633 54.0779L9.87048 55.387L8.77711 56.8831L8.08133 58.8468L7.68373 60.5299L7.48494 62.213V63.9896L7.88253 65.6727L8.47892 67.6364L10.2681 70.8156L11.1627 72.0312L12.0572 73.0597L13.0512 74.0883L13.9458 75.0234L16.3313 76.8935L18.9157 78.3896L21.7982 79.6987L24.5813 80.6338L27.762 81.3818L30.744 81.8493L33.6265 82.1299L36.4096 82.2234H39.0934L42.1747 82.1299L47.0452 81.4753L50.6235 80.6338L53.8042 79.6987L57.1837 78.3896L60.3645 76.987L63.4458 75.3039L66.3283 73.3403L69.1115 71.1896L70.2048 72.4052L71 73.9013L68.3163 75.9584L65.0361 77.7351L58.2771 80.6338L54.6988 81.7558L51.0211 82.6909L47.5422 83.2519L44.759 83.626L41.9759 83.9065L39.0934 84L36.4096 83.9065L33.5271 83.813L30.6446 83.439L27.9608 83.0182L24.4819 82.3169L21.1024 81.1948L17.7229 79.6987L16.3313 78.9506L14.8404 78.0156L13.5482 77.174L12.3554 76.239L11.262 75.2104L10.2681 74.1818L9.37349 73.0597L8.57831 71.9377L7.48494 70.4416L6.59036 68.6649L5.79518 66.7013L5.29819 64.8312L5 62.961V60.8104L5.29819 58.8468L5.79518 56.8831L6.68976 54.9195L8.08133 52.9558L9.77108 51.1792L11.8584 49.7766L14.1446 48.8416L16.4307 48.187L18.8163 48H21.2018L23.5873 48.374L25.8735 49.2156L28.0602 50.4312L29.0542 51.1792L29.8494 52.2078L30.5452 53.2364L30.9428 54.5455L31.3404 55.8545V57.7247L31.0422 59.4078L30.5452 60.7169L29.8494 61.6519L28.756 62.774L27.3645 63.8026L25.8735 64.4571L24.1837 64.6442H22.991L21.6988 64.4571L20.506 63.9896L19.6114 63.4286L18.8163 62.774L18.2199 62.026L18.0211 61.0909L18.1205 59.7818Z" fill="url(#paint8_linear_229_649)"/>
<path d="M61.7687 37.9146L62.7671 38.0115L63.7654 38.3024L64.7637 38.5933L65.7621 38.9811V39.369L63.5657 41.5991L61.0699 43.8292L58.3744 45.8653L55.579 47.7076L51.2862 49.9377L46.7937 51.8769L48.99 52.0708L51.5857 52.4587L54.0815 53.2344L56.6772 54.107L59.173 55.1736L61.8686 56.4341L64.3644 57.7915L66.8602 59.3429L69.2562 60.8943L71.6522 62.6396L74.0483 64.6758L76.1448 66.7119L78.2413 68.942L79.8386 71.2691L81.1364 73.6931L82.2346 76.2141L83.1331 79.8017L83.4326 83.4862L83.5 85.903L84 86.5L84.8008 86.7829H85.4004L86 86.5L87.3923 85.903L89 85L91.5 83H93L91 85L89 87L86.5 89L83.5 91.5L79.0674 94L76.7995 95.2185L74.0483 96.479L71.7521 97.2331L69.7554 98.0604L68 98.5L66.6606 98.806L64.5 99L65.3627 96.9638L66.9601 96.479L67.9584 96.0911L68.7571 95.5093L69.6556 94.8306L70.7537 93.861L71.7521 92.8914L72.6506 91.7279L73.4493 90.5643L74.0483 89.4008L74.5474 88.1403L74.7471 86.7829L75.0466 84.1649V81.547L74.5474 78.929L73.8486 76.602L73.0499 74.5658L71.9517 72.6266L70.7537 70.8813L69.3561 69.136L67.7587 67.4876L66.3611 66.0332L64.6639 64.5788L62.6672 63.0274L60.6705 61.573L58.4742 60.0216L56.2779 58.8581L54.381 57.7915L52.2845 56.8219L50.188 55.9493L48.0915 55.1736L46.3943 54.6888L44.6972 54.3009L43 54.107V51.1012L45.6955 50.4225L48.2912 49.3559L50.8869 47.9015L53.4825 46.1562L55.9784 44.217L58.1747 42.0839L60.0715 40.0477L61.7687 37.9146Z" fill="url(#paint9_linear_229_649)"/>
<path d="M106.5 52C106.5 80.4294 82.7846 103.5 53.5 103.5C24.2154 103.5 0.5 80.4294 0.5 52C0.5 23.5706 24.2154 0.5 53.5 0.5C82.7846 0.5 106.5 23.5706 106.5 52Z" stroke="url(#paint10_linear_229_649)"/>
<defs>
<linearGradient id="paint0_linear_229_649" x1="308" y1="26" x2="308" y2="73" gradientUnits="userSpaceOnUse">
<stop stop-color="#98660F"/>
<stop offset="0.425" stop-color="#F7E47D"/>
<stop offset="0.735" stop-color="#C4931D"/>
<stop offset="1" stop-color="#FBEB7C"/>
</linearGradient>
<linearGradient id="paint1_linear_229_649" x1="157" y1="12" x2="157" y2="79" gradientUnits="userSpaceOnUse">
<stop stop-color="#98660F"/>
<stop offset="0.425" stop-color="#F7E47D"/>
<stop offset="0.735" stop-color="#C4931D"/>
<stop offset="1" stop-color="#FBEB7C"/>
</linearGradient>
<linearGradient id="paint2_linear_229_649" x1="333" y1="69" x2="333" y2="92" gradientUnits="userSpaceOnUse">
<stop stop-color="#98660F"/>
<stop offset="0.425" stop-color="#F7E47D"/>
<stop offset="0.735" stop-color="#C4931D"/>
<stop offset="1" stop-color="#FBEB7C"/>
</linearGradient>
<linearGradient id="paint3_linear_229_649" x1="40.5" y1="6" x2="40.5" y2="47" gradientUnits="userSpaceOnUse">
<stop stop-color="#B0871E"/>
<stop offset="0.25" stop-color="#F9E67F"/>
<stop offset="0.5" stop-color="#C3901B"/>
<stop offset="0.75" stop-color="#F7E47D"/>
<stop offset="1" stop-color="#C9A537"/>
</linearGradient>
<linearGradient id="paint4_linear_229_649" x1="78" y1="12" x2="78" y2="33" gradientUnits="userSpaceOnUse">
<stop stop-color="#B0871E"/>
<stop offset="0.25" stop-color="#F9E67F"/>
<stop offset="0.5" stop-color="#C3901B"/>
<stop offset="0.75" stop-color="#F7E47D"/>
<stop offset="1" stop-color="#C9A537"/>
</linearGradient>
<linearGradient id="paint5_linear_229_649" x1="63.5" y1="30" x2="63.5" y2="68" gradientUnits="userSpaceOnUse">
<stop stop-color="#B0871E"/>
<stop offset="0.25" stop-color="#F9E67F"/>
<stop offset="0.5" stop-color="#C3901B"/>
<stop offset="0.75" stop-color="#F7E47D"/>
<stop offset="1" stop-color="#C9A537"/>
</linearGradient>
<linearGradient id="paint6_linear_229_649" x1="37.5" y1="85" x2="37.5" y2="100" gradientUnits="userSpaceOnUse">
<stop stop-color="#B0871E"/>
<stop offset="0.25" stop-color="#F9E67F"/>
<stop offset="0.5" stop-color="#C3901B"/>
<stop offset="0.75" stop-color="#F7E47D"/>
<stop offset="1" stop-color="#C9A537"/>
</linearGradient>
<linearGradient id="paint7_linear_229_649" x1="36.5" y1="11" x2="36.5" y2="82" gradientUnits="userSpaceOnUse">
<stop stop-color="#B0871E"/>
<stop offset="0.25" stop-color="#F9E67F"/>
<stop offset="0.5" stop-color="#C3901B"/>
<stop offset="0.75" stop-color="#F7E47D"/>
<stop offset="1" stop-color="#C9A537"/>
</linearGradient>
<linearGradient id="paint8_linear_229_649" x1="38" y1="48" x2="38" y2="84" gradientUnits="userSpaceOnUse">
<stop stop-color="#B0871E"/>
<stop offset="0.25" stop-color="#F9E67F"/>
<stop offset="0.5" stop-color="#C3901B"/>
<stop offset="0.75" stop-color="#F7E47D"/>
<stop offset="1" stop-color="#C9A537"/>
</linearGradient>
<linearGradient id="paint9_linear_229_649" x1="73" y1="32" x2="73" y2="99" gradientUnits="userSpaceOnUse">
<stop stop-color="#B0871E"/>
<stop offset="0.25" stop-color="#F9E67F"/>
<stop offset="0.5" stop-color="#C3901B"/>
<stop offset="0.75" stop-color="#F7E47D"/>
<stop offset="1" stop-color="#C9A537"/>
</linearGradient>
<linearGradient id="paint10_linear_229_649" x1="53.5" y1="0" x2="53.5" y2="104" gradientUnits="userSpaceOnUse">
<stop stop-color="#B0871E"/>
<stop offset="0.25" stop-color="#F9E67F"/>
<stop offset="0.5" stop-color="#C3901B"/>
<stop offset="0.75" stop-color="#F7E47D"/>
<stop offset="1" stop-color="#C9A537"/>
</linearGradient>
</defs>
</svg>
