<svg width="107" height="104" viewBox="0 0 107 104" fill="none" xmlns="http://www.w3.org/2000/svg">
<path d="M50.0529 6L52.0124 6.1934L53.7761 6.58019L55.7356 7.35377L57.4992 8.32075L59.0669 9.38443L60.6345 10.8349L61.9082 12.3821L62.4961 13.5425L62.6921 13.8325L62.888 13.9292H63.182L63.3779 13.7358L64.1617 12.7689L64.9456 11.8986L66.6112 10.2547L68.3748 8.70755L70.3344 7.16038L72 7.93396L71.6081 8.03066L70.6283 8.41745L69.3546 8.99764L68.1788 9.86792L67.1011 10.9316L65.0435 13.4458L64.0638 14.7028L63.182 16.25L62.2022 17.7005L61.2224 19.1509L59.2628 22.2453L58.283 23.6958L57.0093 24.8561L55.6376 25.8231L54.168 26.5L53.6781 25.9198L54.6579 25.533L55.7356 24.7594L56.6174 23.6958L57.2053 22.2453L57.4992 20.8915L57.5972 19.7311V18.6675L57.4992 17.6038L57.2053 16.4434L56.4215 14.7028L55.3437 13.2524L54.07 11.8019L52.6003 10.6415L50.9347 9.77123L49.1711 9.09434L47.3095 8.70755L45.6439 8.51415H43.1944L39.2753 8.90094L35.4541 9.86792L31.633 11.5118L28.2037 13.2524L24.8725 15.4764L21.9331 17.8939L18.9938 20.7948L17.1322 22.9222L15.6625 25.4363L14.2908 27.9505L13.409 30.8514L13.0171 33.0755V34.2358V35.2995L13.409 36.3632L13.9969 37.4269L14.6827 38.3939L15.4666 39.3608L16.3484 39.941L17.4261 40.3278L18.7978 40.6179L20.0715 40.7146H22.717L25.1664 40.2311L27.8118 39.3608L30.4572 38.3939L34.7297 36.5V36.9432V44.1955L31.437 45.5495L27.6159 46.5165L23.5008 47H19.4837L17.1322 46.7099L15.0747 46.2264L13.311 45.2594L11.9393 44.0991L10.9596 43.1321L10.1757 41.875L9.58787 40.7146L9.29393 39.5542L9.09798 38.1038L9 36.6533V35.0094L9.29393 33.4623L9.68585 31.8184L10.2737 30.1745L11.7434 27.0802L13.8009 23.9858L16.2504 20.9882L18.7978 18.184L21.9331 15.6698L25.0684 13.4458L28.2037 11.5118L31.633 9.86792L35.0622 8.41745L38.6874 7.16038L42.6065 6.29009L46.4277 6H50.0529Z" fill="url(#paint0_linear_229_650)"/>
<path d="M80.824 12H81.429L81.6307 12.3925L82.0341 13.1776L82.74 14.0607L83.4963 14.7967L84.2526 15.5327L85.9669 16.9065L87.8828 18.1822L88.9417 18.771L90.0005 19.3598L89.8996 19.5561L89.1938 19.3598L87.9837 19.0654L86.5719 18.9673L83.5467 19.0654L81.5299 19.5561L80.0173 20.4393L78.7064 21.5187L77.2946 22.8925L75.5803 25.1495L73.9669 27.7009L72.3534 30.1542L71 32.5L69.6307 31.9206L68.4206 31.4299L67.2101 31L66 30.7056L67.0089 28.3879L68.4206 25.4439L69.9332 22.5981L71.4459 20.243L73.1601 17.8879L74.3702 16.514L75.9837 15.0421L78.1013 13.5701L79.5131 12.6869L80.824 12Z" fill="url(#paint1_linear_229_650)"/>
<path d="M43.2207 33.0104L44.7036 32.2183L46.6082 31.5431L50.618 30.3858L54.728 30H58.9383L63.1486 30.3858L67.0581 31.2538L71.1681 32.9898L74.9774 35.2081L76.8821 36.6548L78.7867 38.3909L80.4909 40.3198L81.6938 42.3452L82.6962 44.467L83.3979 46.6853L83.7989 49L83.9994 51.4112L83.7989 53.8223L83.3979 56.4264L82.8967 58.4518L82.2953 60.6701L81.4933 62.7919L80.3906 64.7208L79.1877 66.4569L78 68L74.0752 64.0457L75.1779 62.599L76.0801 60.6701L76.5813 58.934L76.8821 57.0051L77.0825 54.9797V52.8579L76.8821 50.6396L76.3808 48.6142L75.6791 46.7817L74.6767 45.1421L73.6742 43.6954L72.4713 42.3452L70.9676 40.9949L69.5642 39.934L68.261 39.1624L66.7574 38.3909L65.2537 37.9086L63.75 37.5228L62.2464 37.3299L60.6424 37.1371L59.0385 37.0406H57.3344L55.7305 37.1371L54.2268 37.3299L52.8234 37.5228L51.3197 37.8122L49.9163 38.1015L48.6131 38.3909L45.9065 39.2589L44.4028 39.7411L43.2207 40.1474V33.0104Z" fill="url(#paint2_linear_229_650)"/>
<path d="M33.8369 84.5L34.9881 84.5962L36.2439 84.6923L37.4997 84.7404L38.7555 84.7885L41.3718 84.6923L43.8834 84.5L44.4067 87.6731L44.9299 89.3077L45.7671 91.0385L46.4997 92.4808L47.4415 93.7308L49.3253 96.1346L50.2671 97.0962L51.209 98.0577L50.1625 99.5L48.9067 97.9615L47.4415 96.5192L45.8718 95.4615L44.1974 94.5962L42.6276 93.8269L41.0578 93.0577L39.3834 92.4808L37.8136 92L36.0346 91.6154L34.3601 91.3269L32.6857 91.0385L30.9067 90.75L29.1276 90.5577L27.4532 90.4615H25.8834L24.209 90.6538L24.4183 90.0769L25.8834 89.8846L27.4532 89.5L28.9183 88.9231L30.2788 88.25L31.4299 87.3846L32.3718 86.5192L33.209 85.5577L33.8369 84.5Z" fill="url(#paint3_linear_229_650)"/>
<path d="M47.2072 11.7738L47.9044 11L49 11.7738L47.6056 12.8379L46.4104 14.0954L45.3147 15.7398L44.5179 17.5777L43.7211 19.609L43.2231 21.7371L42.7251 25.1226L42.5259 75.2289V76.97V78.7112L42.6255 80.4523L42.7603 81.6325H39H36.882L34.8918 81.5L35.255 80.4523L35.4542 78.7112L35.6534 75.2289L35.255 28.3147L35.0558 27.0572L34.5578 25.8965L34.0598 24.9292L33.2629 24.0586L32.0677 23.3815L30.9721 22.9946L29.7769 22.7044L28.2829 22.5109H27.0876H25.992L24 22.7044V21.6403L25.3944 21.7371L26.8884 21.6403L28.4821 21.4469L29.9761 21.1567L31.6693 20.673L33.4622 19.9959L36.0518 18.9319L39.1394 17.3842L42.1275 15.6431L44.8167 13.9019L46.2112 12.7411L47.2072 11.7738Z" fill="url(#paint4_linear_229_650)"/>
<path d="M18.1205 59.7818L18.5181 60.3429L19.0151 60.8104L19.7108 61.2779L20.4066 61.4649L21.2018 61.6519H21.8976H22.6928L23.3886 61.4649L24.1837 61.0909L24.7801 60.7169L25.3765 60.2494L25.8735 59.5948L26.2711 57.9117V56.8831L26.0723 55.8545L25.2771 54.5455L24.3825 53.4234L23.3886 52.5818L22.0964 51.9273L20.7048 51.6468L19.1145 51.4597H17.4247L15.7349 51.6468L14.1446 52.2078L12.4548 53.0494L11.0633 54.0779L9.87048 55.387L8.77711 56.8831L8.08133 58.8468L7.68373 60.5299L7.48494 62.213V63.9896L7.88253 65.6727L8.47892 67.6364L10.2681 70.8156L11.1627 72.0312L12.0572 73.0597L13.0512 74.0883L13.9458 75.0234L16.3313 76.8935L18.9157 78.3896L21.7982 79.6987L24.5813 80.6338L27.762 81.3818L30.744 81.8493L33.6265 82.1299L36.4096 82.2234H39.0934L42.1747 82.1299L47.0452 81.4753L50.6235 80.6338L53.8042 79.6987L57.1837 78.3896L60.3645 76.987L63.4458 75.3039L66.3283 73.3403L69.1115 71.1896L70.2048 72.4052L71 73.9013L68.3163 75.9584L65.0361 77.7351L58.2771 80.6338L54.6988 81.7558L51.0211 82.6909L47.5422 83.2519L44.759 83.626L41.9759 83.9065L39.0934 84L36.4096 83.9065L33.5271 83.813L30.6446 83.439L27.9608 83.0182L24.4819 82.3169L21.1024 81.1948L17.7229 79.6987L16.3313 78.9506L14.8404 78.0156L13.5482 77.174L12.3554 76.239L11.262 75.2104L10.2681 74.1818L9.37349 73.0597L8.57831 71.9377L7.48494 70.4416L6.59036 68.6649L5.79518 66.7013L5.29819 64.8312L5 62.961V60.8104L5.29819 58.8468L5.79518 56.8831L6.68976 54.9195L8.08133 52.9558L9.77108 51.1792L11.8584 49.7766L14.1446 48.8416L16.4307 48.187L18.8163 48H21.2018L23.5873 48.374L25.8735 49.2156L28.0602 50.4312L29.0542 51.1792L29.8494 52.2078L30.5452 53.2364L30.9428 54.5455L31.3404 55.8545V57.7247L31.0422 59.4078L30.5452 60.7169L29.8494 61.6519L28.756 62.774L27.3645 63.8026L25.8735 64.4571L24.1837 64.6442H22.991L21.6988 64.4571L20.506 63.9896L19.6114 63.4286L18.8163 62.774L18.2199 62.026L18.0211 61.0909L18.1205 59.7818Z" fill="url(#paint5_linear_229_650)"/>
<path d="M61.7687 37.9146L62.7671 38.0115L63.7654 38.3024L64.7637 38.5933L65.7621 38.9811V39.369L63.5657 41.5991L61.0699 43.8292L58.3744 45.8653L55.579 47.7076L51.2862 49.9377L46.7937 51.8769L48.99 52.0708L51.5857 52.4587L54.0815 53.2344L56.6772 54.107L59.173 55.1736L61.8686 56.4341L64.3644 57.7915L66.8602 59.3429L69.2562 60.8943L71.6522 62.6396L74.0483 64.6758L76.1448 66.7119L78.2413 68.942L79.8386 71.2691L81.1364 73.6931L82.2346 76.2141L83.1331 79.8017L83.4326 83.4862L83.5 85.903L84 86.5L84.8008 86.7829H85.4004L86 86.5L87.3923 85.903L89 85L91.5 83H93L91 85L89 87L86.5 89L83.5 91.5L79.0674 94L76.7995 95.2185L74.0483 96.479L71.7521 97.2331L69.7554 98.0604L68 98.5L66.6606 98.806L64.5 99L65.3627 96.9638L66.9601 96.479L67.9584 96.0911L68.7571 95.5093L69.6556 94.8306L70.7537 93.861L71.7521 92.8914L72.6506 91.7279L73.4493 90.5643L74.0483 89.4008L74.5474 88.1403L74.7471 86.7829L75.0466 84.1649V81.547L74.5474 78.929L73.8486 76.602L73.0499 74.5658L71.9517 72.6266L70.7537 70.8813L69.3561 69.136L67.7587 67.4876L66.3611 66.0332L64.6639 64.5788L62.6672 63.0274L60.6705 61.573L58.4742 60.0216L56.2779 58.8581L54.381 57.7915L52.2845 56.8219L50.188 55.9493L48.0915 55.1736L46.3943 54.6888L44.6972 54.3009L43 54.107V51.1012L45.6955 50.4225L48.2912 49.3559L50.8869 47.9015L53.4825 46.1562L55.9784 44.217L58.1747 42.0839L60.0715 40.0477L61.7687 37.9146Z" fill="url(#paint6_linear_229_650)"/>
<path d="M106.5 52C106.5 80.4294 82.7846 103.5 53.5 103.5C24.2154 103.5 0.5 80.4294 0.5 52C0.5 23.5706 24.2154 0.5 53.5 0.5C82.7846 0.5 106.5 23.5706 106.5 52Z" stroke="url(#paint7_linear_229_650)"/>
<defs>
<linearGradient id="paint0_linear_229_650" x1="40.5" y1="6" x2="40.5" y2="47" gradientUnits="userSpaceOnUse">
<stop stop-color="#B0871E"/>
<stop offset="0.25" stop-color="#F9E67F"/>
<stop offset="0.5" stop-color="#C3901B"/>
<stop offset="0.75" stop-color="#F7E47D"/>
<stop offset="1" stop-color="#C9A537"/>
</linearGradient>
<linearGradient id="paint1_linear_229_650" x1="78" y1="12" x2="78" y2="33" gradientUnits="userSpaceOnUse">
<stop stop-color="#B0871E"/>
<stop offset="0.25" stop-color="#F9E67F"/>
<stop offset="0.5" stop-color="#C3901B"/>
<stop offset="0.75" stop-color="#F7E47D"/>
<stop offset="1" stop-color="#C9A537"/>
</linearGradient>
<linearGradient id="paint2_linear_229_650" x1="63.5" y1="30" x2="63.5" y2="68" gradientUnits="userSpaceOnUse">
<stop stop-color="#B0871E"/>
<stop offset="0.25" stop-color="#F9E67F"/>
<stop offset="0.5" stop-color="#C3901B"/>
<stop offset="0.75" stop-color="#F7E47D"/>
<stop offset="1" stop-color="#C9A537"/>
</linearGradient>
<linearGradient id="paint3_linear_229_650" x1="37.5" y1="85" x2="37.5" y2="100" gradientUnits="userSpaceOnUse">
<stop stop-color="#B0871E"/>
<stop offset="0.25" stop-color="#F9E67F"/>
<stop offset="0.5" stop-color="#C3901B"/>
<stop offset="0.75" stop-color="#F7E47D"/>
<stop offset="1" stop-color="#C9A537"/>
</linearGradient>
<linearGradient id="paint4_linear_229_650" x1="36.5" y1="11" x2="36.5" y2="82" gradientUnits="userSpaceOnUse">
<stop stop-color="#B0871E"/>
<stop offset="0.25" stop-color="#F9E67F"/>
<stop offset="0.5" stop-color="#C3901B"/>
<stop offset="0.75" stop-color="#F7E47D"/>
<stop offset="1" stop-color="#C9A537"/>
</linearGradient>
<linearGradient id="paint5_linear_229_650" x1="38" y1="48" x2="38" y2="84" gradientUnits="userSpaceOnUse">
<stop stop-color="#B0871E"/>
<stop offset="0.25" stop-color="#F9E67F"/>
<stop offset="0.5" stop-color="#C3901B"/>
<stop offset="0.75" stop-color="#F7E47D"/>
<stop offset="1" stop-color="#C9A537"/>
</linearGradient>
<linearGradient id="paint6_linear_229_650" x1="73" y1="32" x2="73" y2="99" gradientUnits="userSpaceOnUse">
<stop stop-color="#B0871E"/>
<stop offset="0.25" stop-color="#F9E67F"/>
<stop offset="0.5" stop-color="#C3901B"/>
<stop offset="0.75" stop-color="#F7E47D"/>
<stop offset="1" stop-color="#C9A537"/>
</linearGradient>
<linearGradient id="paint7_linear_229_650" x1="53.5" y1="0" x2="53.5" y2="104" gradientUnits="userSpaceOnUse">
<stop stop-color="#B0871E"/>
<stop offset="0.25" stop-color="#F9E67F"/>
<stop offset="0.5" stop-color="#C3901B"/>
<stop offset="0.75" stop-color="#F7E47D"/>
<stop offset="1" stop-color="#C9A537"/>
</linearGradient>
</defs>
</svg>
